<?xml version="1.0" encoding="UTF-8"?>
<svg xmlns="http://www.w3.org/2000/svg" xmlns:xlink="http://www.w3.org/1999/xlink" width="754.55pt" height="367.73pt" viewBox="0 0 754.55 367.73" version="1.1">
<defs>
<clipPath id="clip1">
  <path d="M 727 250 L 752.070313 250 L 752.070313 295 L 727 295 Z M 727 250 "/>
</clipPath>
<clipPath id="clip2">
  <path d="M 499 318 L 542 318 L 542 362.078125 L 499 362.078125 Z M 499 318 "/>
</clipPath>
<clipPath id="clip3">
  <path d="M 549 318 L 572 318 L 572 362.078125 L 549 362.078125 Z M 549 318 "/>
</clipPath>
</defs>
<g id="surface1">
<path style=" stroke:none;fill-rule:nonzero;fill:rgb(13.699341%,12.199402%,12.5%);fill-opacity:1;" d="M 297.414063 3.976563 C 297.414063 3.976563 269.824219 52.144531 268.78125 97.457031 L 294.300781 97.457031 L 294.300781 119.320313 L 267.734375 119.320313 C 267.734375 119.320313 265.664063 164.636719 297.414063 215.132813 L 271.652344 215.132813 C 271.652344 215.132813 209.15625 128.96875 271.652344 3.976563 L 297.414063 3.976563 "/>
<path style=" stroke:none;fill-rule:nonzero;fill:rgb(92.89856%,12.89978%,15.299988%);fill-opacity:1;" d="M 247.085938 215.058594 C 247.085938 215.058594 184.609375 128.96875 247.085938 3.976563 L 6.789063 3.976563 L 6.789063 215.058594 L 247.085938 215.058594 "/>
<path style=" stroke:none;fill-rule:nonzero;fill:rgb(13.699341%,12.199402%,12.5%);fill-opacity:1;" d="M 394.027344 215.171875 L 418.335938 215.171875 L 418.335938 119.359375 L 444.265625 119.359375 L 444.265625 97.496094 L 418.746094 97.496094 C 419.769531 52.199219 447.382813 4.035156 447.382813 4.035156 L 421.617188 4.035156 C 401.808594 43.640625 394.550781 79.363281 393.898438 109.695313 L 394.027344 215.171875 "/>
<path style=" stroke:none;fill-rule:nonzero;fill:rgb(13.699341%,12.199402%,12.5%);fill-opacity:1;" d="M 482.65625 119.359375 C 482.65625 119.359375 480.566406 164.671875 512.335938 215.171875 L 486.554688 215.171875 C 486.554688 215.171875 457.417969 174.988281 458.855469 109.679688 L 458.855469 3.976563 L 482.527344 3.976563 L 482.65625 119.359375 "/>
<path style=" stroke:none;fill-rule:nonzero;fill:rgb(92.89856%,12.89978%,15.299988%);fill-opacity:1;" d="M 537.109375 215.171875 C 505.34375 164.671875 507.429688 119.359375 507.429688 119.359375 L 507.300781 3.976563 L 751.511719 3.976563 L 751.324219 215.152344 L 537.109375 215.171875 "/>
<path style=" stroke:none;fill-rule:nonzero;fill:rgb(13.699341%,12.199402%,12.5%);fill-opacity:1;" d="M 313.34375 3.976563 L 337.300781 3.976563 L 337.300781 215.171875 L 313.34375 215.171875 L 313.34375 3.976563 "/>
<path style=" stroke:none;fill-rule:nonzero;fill:rgb(13.699341%,12.199402%,12.5%);fill-opacity:1;" d="M 369.589844 3.976563 L 344.070313 3.976563 C 344.070313 3.976563 384.160156 56.585938 344.070313 109.695313 L 369.589844 109.695313 C 369.589844 109.695313 407.367188 59.757813 369.589844 3.976563 "/>
<path style=" stroke:none;fill-rule:nonzero;fill:rgb(13.699341%,12.199402%,12.5%);fill-opacity:1;" d="M 10.167969 267.664063 C 10.167969 258.898438 10.167969 257.3125 10.035156 255.519531 C 9.925781 253.617188 9.476563 252.703125 7.628906 252.3125 C 7.183594 252.199219 6.230469 252.144531 5.707031 252.144531 C 5.484375 252.144531 5.261719 252.03125 5.261719 251.808594 C 5.261719 251.453125 5.539063 251.34375 6.15625 251.34375 C 8.691406 251.34375 12.238281 251.511719 12.515625 251.511719 C 12.910156 251.511719 24.101563 251.511719 25.390625 251.453125 C 26.453125 251.417969 27.367188 251.285156 27.796875 251.171875 C 28.09375 251.117188 28.320313 250.914063 28.597656 250.914063 C 28.765625 250.914063 28.820313 251.117188 28.820313 251.417969 C 28.820313 251.808594 28.542969 252.480469 28.375 254.046875 C 28.320313 254.625 28.207031 257.089844 28.09375 257.757813 C 28.039063 258.039063 27.925781 258.394531 27.703125 258.394531 C 27.367188 258.394531 27.253906 258.113281 27.253906 257.648438 C 27.253906 257.253906 27.179688 256.285156 26.902344 255.613281 C 26.507813 254.738281 25.949219 254.046875 22.925781 253.730469 C 21.957031 253.617188 15.839844 253.5625 15.222656 253.5625 C 15 253.5625 14.867188 253.730469 14.867188 254.121094 L 14.867188 269.605469 C 14.867188 270.015625 14.941406 270.183594 15.222656 270.183594 C 15.949219 270.183594 22.851563 270.183594 24.160156 270.070313 C 25.5 269.960938 26.285156 269.847656 26.789063 269.289063 C 27.179688 268.859375 27.402344 268.5625 27.648438 268.5625 C 27.796875 268.5625 27.925781 268.691406 27.925781 269.007813 C 27.925781 269.324219 27.648438 270.292969 27.476563 272.160156 C 27.367188 273.300781 27.253906 275.351563 27.253906 275.742188 C 27.253906 276.210938 27.253906 276.824219 26.84375 276.824219 C 26.566406 276.824219 26.453125 276.601563 26.453125 276.304688 C 26.453125 275.742188 26.453125 275.183594 26.226563 274.457031 C 26.003906 273.691406 25.5 272.71875 23.320313 272.496094 C 21.789063 272.328125 16.230469 272.21875 15.261719 272.21875 C 15 272.21875 14.867188 272.386719 14.867188 272.609375 L 14.867188 277.554688 C 14.867188 279.453125 14.8125 285.984375 14.867188 287.175781 C 15.035156 291.039063 15.894531 291.785156 21.398438 291.785156 C 22.851563 291.785156 25.332031 291.785156 26.789063 291.171875 C 28.261719 290.554688 28.933594 289.414063 29.324219 287.121094 C 29.4375 286.488281 29.550781 286.265625 29.828125 286.265625 C 30.164063 286.265625 30.164063 286.710938 30.164063 287.121094 C 30.164063 287.570313 29.71875 291.394531 29.4375 292.550781 C 29.046875 294.023438 28.597656 294.023438 26.398438 294.023438 C 17.90625 294.023438 14.140625 293.667969 12.515625 293.667969 C 12.238281 293.667969 8.691406 293.835938 7.015625 293.835938 C 6.378906 293.835938 6.101563 293.746094 6.101563 293.410156 C 6.101563 293.222656 6.230469 293.054688 6.546875 293.054688 C 7.070313 293.054688 7.742188 292.941406 8.246094 292.832031 C 9.363281 292.605469 9.644531 291.394531 9.867188 289.753906 C 10.167969 287.402344 10.167969 282.941406 10.167969 277.554688 L 10.167969 267.664063 M 26.453125 243.714844 C 26.734375 244.234375 26.453125 244.382813 26.226563 244.382813 C 26.0625 244.382813 25.5 244.273438 24.550781 244.382813 C 21.789063 244.664063 17.851563 245.949219 16.007813 246.734375 C 15.613281 246.902344 15.261719 247.03125 15.167969 247.03125 C 15.035156 247.03125 14.867188 246.902344 14.867188 246.679688 C 14.867188 246.511719 15 246.417969 15.261719 246.25 C 17.292969 244.851563 22.535156 241.679688 22.925781 241.472656 C 23.878906 240.894531 24.214844 240.726563 24.492188 240.726563 C 24.660156 240.726563 24.773438 240.839844 25.054688 241.230469 C 25.445313 241.808594 25.835938 242.59375 26.453125 243.714844 "/>
<path style=" stroke:none;fill-rule:nonzero;fill:rgb(13.699341%,12.199402%,12.5%);fill-opacity:1;" d="M 44.847656 288.578125 C 39.378906 283.671875 38.039063 277.292969 38.039063 271.9375 C 38.039063 268.167969 39.324219 261.585938 44.324219 256.585938 C 47.699219 253.226563 52.832031 250.578125 61.46875 250.578125 C 63.726563 250.578125 66.878906 250.746094 69.621094 251.25 C 71.765625 251.640625 73.554688 251.976563 75.367188 252.070313 C 75.980469 252.144531 76.09375 252.367188 76.09375 252.703125 C 76.09375 253.171875 75.925781 253.824219 75.8125 255.855469 C 75.703125 257.703125 75.703125 260.78125 75.644531 261.640625 C 75.589844 262.496094 75.476563 262.835938 75.140625 262.835938 C 74.75 262.835938 74.695313 262.421875 74.695313 261.640625 C 74.695313 259.4375 73.78125 257.144531 72.324219 255.914063 C 70.347656 254.234375 66.039063 252.703125 61.078125 252.703125 C 53.613281 252.703125 50.125 254.90625 48.167969 256.808594 C 44.042969 260.746094 43.09375 265.742188 43.09375 271.488281 C 43.09375 282.234375 51.355469 292.066406 63.390625 292.066406 C 67.605469 292.066406 70.925781 291.5625 73.164063 289.25 C 74.339844 288 75.085938 285.535156 75.253906 284.511719 C 75.367188 283.894531 75.476563 283.671875 75.8125 283.671875 C 76.09375 283.671875 76.207031 284.0625 76.207031 284.511719 C 76.207031 284.921875 75.53125 289.808594 74.957031 291.730469 C 74.636719 292.773438 74.527344 292.886719 73.5 293.332031 C 71.261719 294.230469 66.988281 294.640625 63.390625 294.640625 C 54.957031 294.640625 49.285156 292.550781 44.847656 288.578125 "/>
<path style=" stroke:none;fill-rule:nonzero;fill:rgb(13.699341%,12.199402%,12.5%);fill-opacity:1;" d="M 83.277344 272.550781 C 83.277344 282.683594 89.691406 294.640625 105.101563 294.640625 C 118.644531 294.640625 127.523438 284.230469 127.523438 271.65625 C 127.523438 258.5625 118.085938 250.578125 105.4375 250.578125 C 89.917969 250.578125 83.277344 263.449219 83.277344 272.550781 M 88.628906 270.96875 C 88.628906 258.671875 95.660156 252.480469 105.046875 252.480469 C 113.925781 252.480469 122.132813 259.738281 122.132813 273.242188 C 122.132813 289.582031 111.6875 292.496094 106.613281 292.496094 C 96.5 292.496094 88.628906 284.0625 88.628906 270.96875 "/>
<path style=" stroke:none;fill-rule:nonzero;fill:rgb(13.699341%,12.199402%,12.5%);fill-opacity:1;" d="M 145.84375 277.683594 C 145.84375 285.929688 146.085938 289.527344 147.09375 290.554688 C 147.988281 291.433594 149.464844 291.839844 153.828125 291.839844 C 156.8125 291.839844 159.292969 291.785156 160.636719 290.144531 C 161.363281 289.25 161.921875 287.832031 162.09375 286.785156 C 162.148438 286.320313 162.261719 286.058594 162.613281 286.058594 C 162.894531 286.058594 162.933594 286.265625 162.933594 286.898438 C 162.933594 287.496094 162.539063 290.871094 162.09375 292.496094 C 161.699219 293.800781 161.53125 294.023438 158.546875 294.023438 C 150.46875 294.023438 146.757813 293.667969 143.492188 293.667969 C 142.988281 293.667969 139.667969 293.835938 137.988281 293.835938 C 137.375 293.835938 137.074219 293.746094 137.074219 293.410156 C 137.074219 293.222656 137.1875 293.054688 137.542969 293.054688 C 138.046875 293.054688 138.71875 292.941406 139.222656 292.832031 C 140.339844 292.605469 140.621094 291.394531 140.84375 289.753906 C 141.125 287.402344 141.125 282.941406 141.125 277.554688 L 141.125 267.664063 C 141.125 258.898438 141.125 257.3125 141.011719 255.519531 C 140.898438 253.617188 140.453125 252.703125 138.605469 252.3125 C 138.160156 252.199219 137.1875 252.144531 136.683594 252.144531 C 136.460938 252.144531 136.234375 252.03125 136.234375 251.808594 C 136.234375 251.453125 136.515625 251.34375 137.148438 251.34375 C 139.667969 251.34375 143.214844 251.511719 143.492188 251.511719 C 143.773438 251.511719 147.875 251.34375 149.554688 251.34375 C 150.171875 251.34375 150.46875 251.453125 150.46875 251.808594 C 150.46875 252.03125 150.246094 252.144531 150.003906 252.144531 C 149.613281 252.144531 148.828125 252.199219 148.15625 252.3125 C 146.535156 252.589844 146.085938 253.5625 145.957031 255.519531 C 145.84375 257.3125 145.84375 258.898438 145.84375 267.664063 L 145.84375 277.683594 "/>
<path style=" stroke:none;fill-rule:nonzero;fill:rgb(13.699341%,12.199402%,12.5%);fill-opacity:1;" d="M 174.402344 267.664063 C 174.402344 258.898438 174.402344 257.3125 174.292969 255.519531 C 174.179688 253.617188 173.734375 252.703125 171.886719 252.3125 C 171.417969 252.199219 170.46875 252.144531 169.964844 252.144531 C 169.742188 252.144531 169.515625 252.03125 169.515625 251.808594 C 169.515625 251.453125 169.796875 251.34375 170.410156 251.34375 C 172.949219 251.34375 176.492188 251.511719 176.773438 251.511719 C 177.164063 251.511719 188.359375 251.511719 189.644531 251.453125 C 190.710938 251.417969 191.605469 251.285156 192.050781 251.171875 C 192.332031 251.117188 192.554688 250.914063 192.855469 250.914063 C 193.023438 250.914063 193.058594 251.117188 193.058594 251.417969 C 193.058594 251.808594 192.796875 252.480469 192.628906 254.046875 C 192.554688 254.625 192.460938 257.089844 192.332031 257.757813 C 192.273438 258.039063 192.164063 258.394531 191.941406 258.394531 C 191.605469 258.394531 191.492188 258.113281 191.492188 257.648438 C 191.492188 257.253906 191.4375 256.285156 191.15625 255.613281 C 190.765625 254.738281 190.203125 254.046875 187.164063 253.730469 C 186.210938 253.617188 180.09375 253.5625 179.460938 253.5625 C 179.238281 253.5625 179.125 253.730469 179.125 254.121094 L 179.125 269.605469 C 179.125 270.015625 179.179688 270.183594 179.460938 270.183594 C 180.1875 270.183594 187.109375 270.183594 188.394531 270.070313 C 189.757813 269.960938 190.539063 269.847656 191.046875 269.289063 C 191.4375 268.859375 191.660156 268.5625 191.882813 268.5625 C 192.050781 268.5625 192.164063 268.691406 192.164063 269.007813 C 192.164063 269.324219 191.882813 270.292969 191.734375 272.160156 C 191.605469 273.300781 191.492188 275.351563 191.492188 275.742188 C 191.492188 276.210938 191.492188 276.824219 191.101563 276.824219 C 190.820313 276.824219 190.710938 276.601563 190.710938 276.304688 C 190.710938 275.742188 190.710938 275.183594 190.484375 274.457031 C 190.261719 273.691406 189.757813 272.71875 187.554688 272.496094 C 186.046875 272.328125 180.484375 272.21875 179.535156 272.21875 C 179.238281 272.21875 179.125 272.386719 179.125 272.609375 L 179.125 277.554688 C 179.125 279.453125 179.066406 285.984375 179.125 287.175781 C 179.292969 291.039063 180.148438 291.785156 185.652344 291.785156 C 187.109375 291.785156 189.589844 291.785156 191.046875 291.171875 C 192.519531 290.554688 193.191406 289.414063 193.582031 287.121094 C 193.691406 286.488281 193.804688 286.265625 194.085938 286.265625 C 194.421875 286.265625 194.421875 286.710938 194.421875 287.121094 C 194.421875 287.570313 193.972656 291.394531 193.691406 292.550781 C 193.300781 294.023438 192.855469 294.023438 190.652344 294.023438 C 182.164063 294.023438 178.394531 293.667969 176.773438 293.667969 C 176.492188 293.667969 172.949219 293.835938 171.269531 293.835938 C 170.636719 293.835938 170.355469 293.746094 170.355469 293.410156 C 170.355469 293.222656 170.46875 293.054688 170.804688 293.054688 C 171.308594 293.054688 171.996094 292.941406 172.5 292.832031 C 173.621094 292.605469 173.902344 291.394531 174.125 289.753906 C 174.402344 287.402344 174.402344 282.941406 174.402344 277.554688 L 174.402344 267.664063 "/>
<path style=" stroke:none;fill-rule:nonzero;fill:rgb(13.699341%,12.199402%,12.5%);fill-opacity:1;" d="M 226.976563 267.664063 C 226.976563 258.898438 226.976563 257.3125 226.859375 255.519531 C 226.75 253.617188 226.285156 252.703125 224.4375 252.3125 C 223.988281 252.199219 223.035156 252.144531 222.535156 252.144531 C 222.308594 252.144531 222.066406 252.03125 222.066406 251.808594 C 222.066406 251.453125 222.367188 251.34375 222.980469 251.34375 C 225.5 251.34375 228.875 251.511719 229.324219 251.511719 C 230.554688 251.511719 233.820313 251.34375 236.414063 251.34375 C 243.445313 251.34375 245.964844 253.730469 246.859375 254.570313 C 248.109375 255.746094 249.675781 258.261719 249.675781 261.226563 C 249.675781 269.230469 243.835938 274.625 235.855469 274.625 C 235.574219 274.625 234.957031 274.625 234.679688 274.546875 C 234.378906 274.546875 234.042969 274.457031 234.042969 274.15625 C 234.042969 273.730469 234.378906 273.691406 235.574219 273.691406 C 241.019531 273.691406 245.292969 269.679688 245.292969 264.511719 C 245.292969 262.644531 245.125 258.898438 242.140625 255.855469 C 239.15625 252.816406 235.742188 253.039063 234.4375 253.039063 C 233.484375 253.039063 232.53125 253.171875 232.027344 253.394531 C 231.695313 253.488281 231.582031 253.878906 231.582031 254.4375 L 231.582031 277.554688 C 231.582031 282.941406 231.582031 287.402344 231.863281 289.753906 C 232.027344 291.394531 232.363281 292.605469 234.042969 292.832031 C 234.847656 292.941406 236.078125 293.054688 236.582031 293.054688 C 236.917969 293.054688 237.027344 293.222656 237.027344 293.410156 C 237.027344 293.667969 236.75 293.835938 236.132813 293.835938 C 233.035156 293.835938 229.492188 293.667969 229.210938 293.667969 C 229.042969 293.667969 225.5 293.835938 223.820313 293.835938 C 223.203125 293.835938 222.925781 293.746094 222.925781 293.410156 C 222.925781 293.222656 223.035156 293.054688 223.371094 293.054688 C 223.878906 293.054688 224.550781 292.941406 225.050781 292.832031 C 226.171875 292.605469 226.46875 291.394531 226.695313 289.753906 C 226.976563 287.402344 226.976563 282.941406 226.976563 277.554688 L 226.976563 267.664063 "/>
<path style=" stroke:none;fill-rule:nonzero;fill:rgb(13.699341%,12.199402%,12.5%);fill-opacity:1;" d="M 256.636719 272.550781 C 256.636719 282.683594 263.050781 294.640625 278.460938 294.640625 C 292.003906 294.640625 300.882813 284.230469 300.882813 271.65625 C 300.882813 258.5625 291.445313 250.578125 278.796875 250.578125 C 263.277344 250.578125 256.636719 263.449219 256.636719 272.550781 M 261.988281 270.96875 C 261.988281 258.671875 269.023438 252.480469 278.40625 252.480469 C 287.285156 252.480469 295.492188 259.738281 295.492188 273.242188 C 295.492188 289.582031 285.027344 292.496094 279.972656 292.496094 C 269.859375 292.496094 261.988281 284.0625 261.988281 270.96875 "/>
<path style=" stroke:none;fill-rule:nonzero;fill:rgb(13.699341%,12.199402%,12.5%);fill-opacity:1;" d="M 318.085938 277.683594 C 318.085938 285.929688 318.308594 289.527344 319.3125 290.554688 C 320.230469 291.433594 321.683594 291.839844 326.066406 291.839844 C 329.054688 291.839844 331.515625 291.785156 332.859375 290.144531 C 333.605469 289.25 334.164063 287.832031 334.332031 286.785156 C 334.390625 286.320313 334.5 286.058594 334.835938 286.058594 C 335.117188 286.058594 335.171875 286.265625 335.171875 286.898438 C 335.171875 287.496094 334.777344 290.871094 334.332031 292.496094 C 333.941406 293.800781 333.773438 294.023438 330.785156 294.023438 C 322.691406 294.023438 318.980469 293.667969 315.714844 293.667969 C 315.230469 293.667969 311.910156 293.835938 310.210938 293.835938 C 309.597656 293.835938 309.316406 293.746094 309.316406 293.410156 C 309.316406 293.222656 309.429688 293.054688 309.765625 293.054688 C 310.285156 293.054688 310.9375 292.941406 311.460938 292.832031 C 312.582031 292.605469 312.859375 291.394531 313.085938 289.753906 C 313.363281 287.402344 313.363281 282.941406 313.363281 277.554688 L 313.363281 267.664063 C 313.363281 258.898438 313.363281 257.3125 313.253906 255.519531 C 313.140625 253.617188 312.691406 252.703125 310.828125 252.3125 C 310.378906 252.199219 309.429688 252.144531 308.925781 252.144531 C 308.703125 252.144531 308.476563 252.03125 308.476563 251.808594 C 308.476563 251.453125 308.757813 251.34375 309.371094 251.34375 C 311.910156 251.34375 315.4375 251.511719 315.714844 251.511719 C 316.011719 251.511719 320.117188 251.34375 321.796875 251.34375 C 322.410156 251.34375 322.691406 251.453125 322.691406 251.808594 C 322.691406 252.03125 322.46875 252.144531 322.242188 252.144531 C 321.851563 252.144531 321.070313 252.199219 320.398438 252.3125 C 318.753906 252.589844 318.308594 253.5625 318.195313 255.519531 C 318.085938 257.3125 318.085938 258.898438 318.085938 267.664063 L 318.085938 277.683594 "/>
<path style=" stroke:none;fill-rule:nonzero;fill:rgb(13.699341%,12.199402%,12.5%);fill-opacity:1;" d="M 351.753906 279.285156 C 351.753906 276.265625 351.195313 275.035156 350.46875 273.390625 C 350.074219 272.496094 342.539063 260.128906 340.582031 257.199219 C 339.164063 255.128906 337.765625 253.730469 336.757813 253.039063 C 335.917969 252.480469 334.835938 252.144531 334.332031 252.144531 C 334.050781 252.144531 333.773438 252.03125 333.773438 251.753906 C 333.773438 251.511719 333.996094 251.34375 334.5 251.34375 C 335.5625 251.34375 339.777344 251.511719 340.058594 251.511719 C 340.453125 251.511719 342.597656 251.34375 344.777344 251.34375 C 345.414063 251.34375 345.523438 251.511719 345.523438 251.753906 C 345.523438 251.976563 345.171875 252.03125 344.667969 252.253906 C 344.238281 252.480469 343.957031 252.816406 343.957031 253.265625 C 343.957031 253.953125 344.238281 254.625 344.667969 255.464844 C 345.582031 257.089844 354.015625 271.582031 355.019531 273.242188 C 356.085938 270.875 363.226563 258.5625 364.347656 256.695313 C 365.074219 255.519531 365.300781 254.570313 365.300781 253.824219 C 365.300781 253.039063 365.074219 252.421875 364.402344 252.253906 C 363.902344 252.070313 363.566406 251.976563 363.566406 251.679688 C 363.566406 251.453125 363.902344 251.34375 364.460938 251.34375 C 365.914063 251.34375 367.726563 251.511719 368.171875 251.511719 C 368.507813 251.511719 372.554688 251.34375 373.621094 251.34375 C 374.011719 251.34375 374.363281 251.453125 374.363281 251.679688 C 374.363281 251.976563 374.066406 252.144531 373.621094 252.144531 C 373.003906 252.144531 371.941406 252.367188 371.027344 252.945313 C 369.90625 253.617188 369.289063 254.289063 368.0625 255.78125 C 366.214844 258.039063 358.324219 271.265625 357.316406 273.691406 C 356.476563 275.6875 356.476563 277.460938 356.476563 279.285156 L 356.476563 284.117188 C 356.476563 285.03125 356.476563 287.402344 356.644531 289.753906 C 356.753906 291.394531 357.257813 292.605469 358.957031 292.832031 C 359.742188 292.941406 360.972656 293.054688 361.476563 293.054688 C 361.8125 293.054688 361.921875 293.222656 361.921875 293.410156 C 361.921875 293.667969 361.660156 293.835938 361.027344 293.835938 C 357.949219 293.835938 354.40625 293.667969 354.125 293.667969 C 353.847656 293.667969 350.300781 293.835938 348.605469 293.835938 C 347.988281 293.835938 347.707031 293.746094 347.707031 293.410156 C 347.707031 293.222656 347.820313 293.054688 348.15625 293.054688 C 348.679688 293.054688 349.332031 292.941406 349.855469 292.832031 C 350.972656 292.605469 351.476563 291.394531 351.585938 289.753906 C 351.753906 287.402344 351.753906 285.03125 351.753906 284.117188 L 351.753906 279.285156 "/>
<path style=" stroke:none;fill-rule:nonzero;fill:rgb(13.699341%,12.199402%,12.5%);fill-opacity:1;" d="M 395.371094 277.554688 C 395.371094 282.941406 395.371094 287.402344 395.652344 289.753906 C 395.820313 291.394531 396.152344 292.605469 397.851563 292.832031 C 398.652344 292.941406 399.867188 293.054688 400.371094 293.054688 C 400.707031 293.054688 400.820313 293.222656 400.820313 293.410156 C 400.820313 293.667969 400.539063 293.835938 399.941406 293.835938 C 396.84375 293.835938 393.300781 293.667969 393.039063 293.667969 C 392.742188 293.667969 389.195313 293.835938 387.519531 293.835938 C 386.882813 293.835938 386.601563 293.746094 386.601563 293.410156 C 386.601563 293.222656 386.714844 293.054688 387.050781 293.054688 C 387.554688 293.054688 388.242188 292.941406 388.746094 292.832031 C 389.867188 292.605469 390.148438 291.394531 390.371094 289.753906 C 390.671875 287.402344 390.671875 282.941406 390.671875 277.554688 L 390.671875 253.785156 L 382.332031 253.878906 C 378.84375 253.953125 377.5 254.347656 376.605469 255.6875 C 375.988281 256.640625 375.820313 257.03125 375.652344 257.421875 C 375.484375 257.871094 375.316406 258.003906 375.074219 258.003906 C 374.925781 258.003906 374.792969 257.816406 374.792969 257.480469 C 374.792969 256.921875 375.933594 252.070313 376.042969 251.640625 C 376.15625 251.285156 376.378906 250.578125 376.605469 250.578125 C 376.996094 250.578125 377.554688 251.117188 379.085938 251.25 C 380.710938 251.417969 382.835938 251.511719 383.523438 251.511719 L 404.605469 251.511719 C 408.207031 251.511719 409.699219 250.96875 410.164063 250.96875 C 410.445313 250.96875 410.445313 251.285156 410.445313 251.640625 C 410.445313 253.320313 410.273438 257.199219 410.273438 257.816406 C 410.273438 258.339844 410.105469 258.5625 409.867188 258.5625 C 409.605469 258.5625 409.472656 258.394531 409.417969 257.609375 L 409.363281 256.976563 C 409.15625 255.296875 407.871094 254.007813 402.460938 253.878906 L 395.371094 253.785156 L 395.371094 277.554688 "/>
<path style=" stroke:none;fill-rule:nonzero;fill:rgb(13.699341%,12.199402%,12.5%);fill-opacity:1;" d="M 422.234375 267.664063 C 422.234375 258.898438 422.234375 257.3125 422.140625 255.519531 C 422.027344 253.617188 421.582031 252.703125 419.714844 252.3125 C 419.269531 252.199219 418.316406 252.144531 417.792969 252.144531 C 417.589844 252.144531 417.363281 252.03125 417.363281 251.808594 C 417.363281 251.453125 417.625 251.34375 418.261719 251.34375 C 420.777344 251.34375 424.324219 251.511719 424.605469 251.511719 C 425.011719 251.511719 436.1875 251.511719 437.476563 251.453125 C 438.539063 251.417969 439.453125 251.285156 439.898438 251.171875 C 440.199219 251.117188 440.421875 250.914063 440.683594 250.914063 C 440.851563 250.914063 440.90625 251.117188 440.90625 251.417969 C 440.90625 251.808594 440.628906 252.480469 440.460938 254.046875 C 440.421875 254.625 440.292969 257.089844 440.199219 257.757813 C 440.125 258.039063 440.03125 258.394531 439.808594 258.394531 C 439.453125 258.394531 439.324219 258.113281 439.324219 257.648438 C 439.324219 257.253906 439.285156 256.285156 439.003906 255.613281 C 438.613281 254.738281 438.054688 254.046875 435.011719 253.730469 C 434.0625 253.617188 427.925781 253.5625 427.308594 253.5625 C 427.085938 253.5625 426.953125 253.730469 426.953125 254.121094 L 426.953125 269.605469 C 426.953125 270.015625 427.027344 270.183594 427.308594 270.183594 C 428.035156 270.183594 434.957031 270.183594 436.242188 270.070313 C 437.585938 269.960938 438.390625 269.847656 438.894531 269.289063 C 439.285156 268.859375 439.507813 268.5625 439.730469 268.5625 C 439.898438 268.5625 440.03125 268.691406 440.03125 269.007813 C 440.03125 269.324219 439.730469 270.292969 439.5625 272.160156 C 439.453125 273.300781 439.324219 275.351563 439.324219 275.742188 C 439.324219 276.210938 439.324219 276.824219 438.949219 276.824219 C 438.648438 276.824219 438.539063 276.601563 438.539063 276.304688 C 438.539063 275.742188 438.539063 275.183594 438.332031 274.457031 C 438.089844 273.691406 437.585938 272.71875 435.40625 272.496094 C 433.894531 272.328125 428.316406 272.21875 427.363281 272.21875 C 427.085938 272.21875 426.953125 272.386719 426.953125 272.609375 L 426.953125 277.554688 C 426.953125 279.453125 426.914063 285.984375 426.953125 287.175781 C 427.140625 291.039063 427.980469 291.785156 433.480469 291.785156 C 434.957031 291.785156 437.421875 291.785156 438.894531 291.171875 C 440.367188 290.554688 441.039063 289.414063 441.410156 287.121094 C 441.523438 286.488281 441.652344 286.265625 441.914063 286.265625 C 442.25 286.265625 442.25 286.710938 442.25 287.121094 C 442.25 287.570313 441.804688 291.394531 441.523438 292.550781 C 441.132813 294.023438 440.683594 294.023438 438.480469 294.023438 C 430.011719 294.023438 426.246094 293.667969 424.605469 293.667969 C 424.324219 293.667969 420.777344 293.835938 419.101563 293.835938 C 418.484375 293.835938 418.203125 293.746094 418.203125 293.410156 C 418.203125 293.222656 418.316406 293.054688 418.652344 293.054688 C 419.15625 293.054688 419.828125 292.941406 420.332031 292.832031 C 421.46875 292.605469 421.746094 291.394531 421.972656 289.753906 C 422.234375 287.402344 422.234375 282.941406 422.234375 277.554688 L 422.234375 267.664063 "/>
<path style=" stroke:none;fill-rule:nonzero;fill:rgb(13.699341%,12.199402%,12.5%);fill-opacity:1;" d="M 456.933594 288.578125 C 451.46875 283.671875 450.121094 277.292969 450.121094 271.9375 C 450.121094 268.167969 451.410156 261.585938 456.410156 256.585938 C 459.785156 253.226563 464.917969 250.578125 473.570313 250.578125 C 475.828125 250.578125 478.945313 250.746094 481.726563 251.25 C 483.851563 251.640625 485.660156 251.976563 487.449219 252.070313 C 488.046875 252.144531 488.179688 252.367188 488.179688 252.703125 C 488.179688 253.171875 487.992188 253.824219 487.898438 255.855469 C 487.789063 257.703125 487.789063 260.78125 487.730469 261.640625 C 487.675781 262.496094 487.582031 262.835938 487.246094 262.835938 C 486.835938 262.835938 486.800781 262.421875 486.800781 261.640625 C 486.800781 259.4375 485.886719 257.144531 484.410156 255.914063 C 482.453125 254.234375 478.121094 252.703125 473.199219 252.703125 C 465.699219 252.703125 462.210938 254.90625 460.234375 256.808594 C 456.128906 260.746094 455.195313 265.742188 455.195313 271.488281 C 455.195313 282.234375 463.460938 292.066406 475.476563 292.066406 C 479.691406 292.066406 483.011719 291.5625 485.25 289.25 C 486.445313 288 487.1875 285.535156 487.359375 284.511719 C 487.449219 283.894531 487.582031 283.671875 487.898438 283.671875 C 488.179688 283.671875 488.269531 284.0625 488.269531 284.511719 C 488.269531 284.921875 487.617188 289.808594 487.058594 291.730469 C 486.742188 292.773438 486.613281 292.886719 485.605469 293.332031 C 483.347656 294.230469 479.058594 294.640625 475.476563 294.640625 C 467.042969 294.640625 461.355469 292.550781 456.933594 288.578125 "/>
<path style=" stroke:none;fill-rule:nonzero;fill:rgb(13.699341%,12.199402%,12.5%);fill-opacity:1;" d="M 535.746094 277.554688 C 535.746094 282.941406 535.746094 287.402344 536.011719 289.753906 C 536.179688 291.394531 536.53125 292.605469 538.210938 292.832031 C 538.996094 292.941406 540.226563 293.054688 540.730469 293.054688 C 541.085938 293.054688 541.179688 293.222656 541.179688 293.410156 C 541.179688 293.667969 540.914063 293.835938 540.300781 293.835938 C 537.203125 293.835938 533.660156 293.667969 533.398438 293.667969 C 533.117188 293.667969 529.554688 293.835938 527.859375 293.835938 C 527.242188 293.835938 526.980469 293.746094 526.980469 293.410156 C 526.980469 293.222656 527.074219 293.054688 527.410156 293.054688 C 527.933594 293.054688 528.621094 292.941406 529.125 292.832031 C 530.226563 292.605469 530.507813 291.394531 530.730469 289.753906 C 531.011719 287.402344 531.011719 282.941406 531.011719 277.554688 L 531.011719 271.65625 C 531.011719 271.433594 530.84375 271.300781 530.675781 271.300781 L 506.835938 271.300781 C 506.664063 271.300781 506.496094 271.359375 506.496094 271.65625 L 506.496094 277.554688 C 506.496094 282.941406 506.496094 287.402344 506.777344 289.753906 C 506.945313 291.394531 507.300781 292.605469 508.980469 292.832031 C 509.78125 292.941406 511.011719 293.054688 511.496094 293.054688 C 511.851563 293.054688 511.964844 293.222656 511.964844 293.410156 C 511.964844 293.667969 511.683594 293.835938 511.070313 293.835938 C 507.972656 293.835938 504.425781 293.667969 504.148438 293.667969 C 503.867188 293.667969 500.34375 293.835938 498.644531 293.835938 C 498.011719 293.835938 497.730469 293.746094 497.730469 293.410156 C 497.730469 293.222656 497.84375 293.054688 498.179688 293.054688 C 498.699219 293.054688 499.371094 292.941406 499.875 292.832031 C 501.015625 292.605469 501.292969 291.394531 501.519531 289.753906 C 501.777344 287.402344 501.777344 282.941406 501.777344 277.554688 L 501.777344 267.664063 C 501.777344 258.898438 501.777344 257.3125 501.6875 255.519531 C 501.554688 253.617188 501.125 252.703125 499.257813 252.3125 C 498.8125 252.199219 497.84375 252.144531 497.339844 252.144531 C 497.113281 252.144531 496.910156 252.03125 496.910156 251.808594 C 496.910156 251.453125 497.171875 251.34375 497.785156 251.34375 C 500.34375 251.34375 503.867188 251.511719 504.148438 251.511719 C 504.425781 251.511719 507.972656 251.34375 509.667969 251.34375 C 510.285156 251.34375 510.5625 251.453125 510.5625 251.808594 C 510.5625 252.03125 510.34375 252.144531 510.117188 252.144531 C 509.726563 252.144531 509.371094 252.199219 508.699219 252.3125 C 507.167969 252.589844 506.722656 253.5625 506.609375 255.519531 C 506.496094 257.3125 506.496094 258.898438 506.496094 267.664063 L 506.496094 268.859375 C 506.496094 269.121094 506.664063 269.15625 506.835938 269.15625 L 530.675781 269.15625 C 530.84375 269.15625 531.011719 269.121094 531.011719 268.859375 L 531.011719 267.664063 C 531.011719 258.898438 531.011719 257.3125 530.898438 255.519531 C 530.785156 253.617188 530.339844 252.703125 528.492188 252.3125 C 528.046875 252.199219 527.074219 252.144531 526.589844 252.144531 C 526.347656 252.144531 526.105469 252.03125 526.105469 251.808594 C 526.105469 251.453125 526.402344 251.34375 527.019531 251.34375 C 529.554688 251.34375 533.117188 251.511719 533.398438 251.511719 C 533.660156 251.511719 537.203125 251.34375 538.882813 251.34375 C 539.496094 251.34375 539.777344 251.453125 539.777344 251.808594 C 539.777344 252.03125 539.554688 252.144531 539.332031 252.144531 C 538.9375 252.144531 538.605469 252.199219 537.949219 252.3125 C 536.402344 252.589844 535.953125 253.5625 535.84375 255.519531 C 535.746094 257.3125 535.746094 258.898438 535.746094 267.664063 L 535.746094 277.554688 "/>
<path style=" stroke:none;fill-rule:nonzero;fill:rgb(13.699341%,12.199402%,12.5%);fill-opacity:1;" d="M 557.277344 286.207031 C 557.390625 290.832031 557.929688 292.269531 559.460938 292.71875 C 560.523438 293.015625 561.773438 293.054688 562.257813 293.054688 C 562.554688 293.054688 562.703125 293.164063 562.703125 293.410156 C 562.703125 293.746094 562.386719 293.835938 561.71875 293.835938 C 558.488281 293.835938 556.269531 293.667969 555.746094 293.667969 C 555.242188 293.667969 552.875 293.835938 550.355469 293.835938 C 549.777344 293.835938 549.460938 293.800781 549.460938 293.410156 C 549.460938 293.164063 549.628906 293.054688 549.90625 293.054688 C 550.355469 293.054688 551.363281 293.015625 552.222656 292.71875 C 553.621094 292.34375 553.882813 290.703125 553.882813 285.589844 L 553.957031 253.394531 C 553.957031 251.171875 554.125 250.578125 554.570313 250.578125 C 555.019531 250.578125 555.988281 251.808594 556.550781 252.367188 C 557.390625 253.320313 565.765625 262.386719 574.421875 271.65625 C 579.980469 277.628906 586.101563 284.453125 587.90625 286.320313 L 587.292969 257.757813 C 587.234375 254.121094 586.824219 252.871094 585.109375 252.421875 C 584.101563 252.199219 582.796875 252.144531 582.351563 252.144531 C 581.9375 252.144531 581.882813 251.976563 581.882813 251.753906 C 581.882813 251.417969 582.351563 251.34375 583.003906 251.34375 C 585.539063 251.34375 588.242188 251.511719 588.878906 251.511719 C 589.492188 251.511719 591.339844 251.34375 593.652344 251.34375 C 594.25 251.34375 594.660156 251.417969 594.660156 251.753906 C 594.660156 251.976563 594.4375 252.144531 594.046875 252.144531 C 593.746094 252.144531 593.355469 252.144531 592.683594 252.3125 C 590.835938 252.703125 590.59375 253.953125 590.59375 257.3125 L 590.480469 290.257813 C 590.480469 293.96875 590.371094 294.230469 589.980469 294.230469 C 589.53125 294.230469 588.878906 293.613281 585.875 290.648438 C 585.277344 290.070313 577.160156 281.84375 571.210938 275.425781 C 564.683594 268.394531 558.320313 261.304688 556.550781 259.269531 L 557.277344 286.207031 "/>
<path style=" stroke:none;fill-rule:nonzero;fill:rgb(13.699341%,12.199402%,12.5%);fill-opacity:1;" d="M 613.707031 277.554688 C 613.707031 282.941406 613.707031 287.402344 613.984375 289.753906 C 614.152344 291.394531 614.492188 292.605469 616.1875 292.832031 C 616.972656 292.941406 618.203125 293.054688 618.707031 293.054688 C 619.042969 293.054688 619.152344 293.222656 619.152344 293.410156 C 619.152344 293.667969 618.875 293.835938 618.261719 293.835938 C 615.160156 293.835938 611.617188 293.667969 611.355469 293.667969 C 611.058594 293.667969 607.53125 293.835938 605.835938 293.835938 C 605.199219 293.835938 604.9375 293.746094 604.9375 293.410156 C 604.9375 293.222656 605.03125 293.054688 605.390625 293.054688 C 605.890625 293.054688 606.582031 292.941406 607.066406 292.832031 C 608.1875 292.605469 608.484375 291.394531 608.707031 289.753906 C 608.96875 287.402344 608.96875 282.941406 608.96875 277.554688 L 608.96875 267.664063 C 608.96875 258.898438 608.96875 257.3125 608.855469 255.519531 C 608.765625 253.617188 608.1875 252.648438 606.972656 252.367188 C 606.355469 252.199219 605.59375 252.144531 605.199219 252.144531 C 604.996094 252.144531 604.773438 252.03125 604.773438 251.808594 C 604.773438 251.453125 605.03125 251.34375 605.648438 251.34375 C 607.53125 251.34375 611.058594 251.511719 611.355469 251.511719 C 611.617188 251.511719 615.160156 251.34375 616.878906 251.34375 C 617.476563 251.34375 617.757813 251.453125 617.757813 251.808594 C 617.757813 252.03125 617.53125 252.144531 617.308594 252.144531 C 616.914063 252.144531 616.578125 252.199219 615.910156 252.3125 C 614.378906 252.589844 613.933594 253.5625 613.800781 255.519531 C 613.707031 257.3125 613.707031 258.898438 613.707031 267.664063 L 613.707031 277.554688 "/>
<path style=" stroke:none;fill-rule:nonzero;fill:rgb(13.699341%,12.199402%,12.5%);fill-opacity:1;" d="M 667.566406 297.960938 C 676.667969 302.960938 683.90625 305.496094 690.734375 305.496094 C 699.054688 305.496094 705.339844 303.074219 708.53125 301.617188 C 708.886719 301.429688 708.996094 301.28125 708.996094 301.058594 C 708.996094 300.886719 708.886719 300.722656 708.660156 300.722656 C 708.472656 300.722656 708.214844 300.832031 707.859375 300.964844 C 703.996094 302.511719 699.59375 303.128906 696.777344 303.128906 C 693.980469 303.128906 685.4375 302.828125 673.121094 296.523438 L 661.59375 290.554688 C 665.308594 288.089844 671.558594 281.542969 671.558594 271.65625 C 671.558594 258.617188 662.117188 250.578125 649.46875 250.578125 C 633.949219 250.578125 627.308594 263.449219 627.308594 272.550781 C 627.308594 282.683594 633.707031 294.640625 649.300781 294.640625 C 652.269531 294.640625 656.089844 293.800781 658.125 292.71875 L 667.566406 297.960938 M 632.640625 270.96875 C 632.640625 258.671875 639.675781 252.480469 649.058594 252.480469 C 657.957031 252.480469 666.144531 259.738281 666.144531 273.242188 C 666.144531 289.582031 655.699219 292.496094 650.625 292.496094 C 640.515625 292.496094 632.640625 284.0625 632.640625 270.96875 "/>
<path style=" stroke:none;fill-rule:nonzero;fill:rgb(13.699341%,12.199402%,12.5%);fill-opacity:1;" d="M 682.1875 267.664063 C 682.1875 258.898438 682.1875 257.3125 682.058594 255.519531 C 681.964844 253.617188 681.5 252.703125 679.636719 252.3125 C 679.1875 252.199219 678.234375 252.144531 677.730469 252.144531 C 677.507813 252.144531 677.28125 252.03125 677.28125 251.808594 C 677.28125 251.453125 677.582031 251.34375 678.179688 251.34375 C 680.714844 251.34375 684.148438 251.511719 684.652344 251.511719 C 685.15625 251.511719 688.515625 251.34375 690.210938 251.34375 C 690.847656 251.34375 691.125 251.453125 691.125 251.808594 C 691.125 252.03125 690.882813 252.144531 690.679688 252.144531 C 690.265625 252.144531 689.933594 252.199219 689.242188 252.3125 C 687.730469 252.535156 687.28125 253.5625 687.1875 255.519531 C 687.058594 257.3125 687.058594 258.898438 687.058594 267.664063 L 687.058594 275.519531 C 687.058594 283.613281 688.851563 287.121094 691.292969 289.414063 C 694.035156 292.007813 696.570313 292.496094 699.761719 292.496094 C 703.195313 292.496094 706.554688 290.871094 708.605469 288.445313 C 711.179688 285.257813 711.851563 280.480469 711.851563 274.679688 L 711.851563 267.664063 C 711.851563 258.898438 711.851563 257.3125 711.738281 255.519531 C 711.628906 253.617188 711.179688 252.703125 709.332031 252.3125 C 708.886719 252.199219 707.914063 252.144531 707.410156 252.144531 C 707.167969 252.144531 706.964844 252.03125 706.964844 251.808594 C 706.964844 251.453125 707.242188 251.34375 707.859375 251.34375 C 710.394531 251.34375 713.492188 251.511719 713.828125 251.511719 C 714.222656 251.511719 716.851563 251.34375 718.566406 251.34375 C 719.183594 251.34375 719.441406 251.453125 719.441406 251.808594 C 719.441406 252.03125 719.21875 252.144531 719.015625 252.144531 C 718.621094 252.144531 718.269531 252.144531 717.597656 252.3125 C 716.066406 252.589844 715.617188 253.5625 715.507813 255.519531 C 715.394531 257.3125 715.394531 258.898438 715.394531 267.664063 L 715.394531 273.691406 C 715.394531 279.734375 714.722656 286.488281 710.230469 290.480469 C 706.179688 294.082031 701.964844 294.640625 698.625 294.640625 C 696.738281 294.640625 691.050781 294.414063 687.058594 290.648438 C 684.296875 288 682.1875 284.0625 682.1875 275.875 L 682.1875 267.664063 "/>
<g clip-path="url(#clip1)" clip-rule="nonzero">
<path style=" stroke:none;fill-rule:nonzero;fill:rgb(13.699341%,12.199402%,12.5%);fill-opacity:1;" d="M 732.09375 267.664063 C 732.09375 258.898438 732.09375 257.3125 731.980469 255.519531 C 731.867188 253.617188 731.417969 252.703125 729.554688 252.3125 C 729.125 252.199219 728.175781 252.144531 727.652344 252.144531 C 727.425781 252.144531 727.203125 252.03125 727.203125 251.808594 C 727.203125 251.453125 727.484375 251.34375 728.101563 251.34375 C 730.617188 251.34375 734.164063 251.511719 734.441406 251.511719 C 734.835938 251.511719 746.046875 251.511719 747.3125 251.453125 C 748.394531 251.417969 749.289063 251.285156 749.738281 251.171875 C 750.019531 251.117188 750.261719 250.914063 750.523438 250.914063 C 750.707031 250.914063 750.746094 251.117188 750.746094 251.417969 C 750.746094 251.808594 750.484375 252.480469 750.300781 254.046875 C 750.261719 254.625 750.132813 257.089844 750.019531 257.757813 C 749.964844 258.039063 749.851563 258.394531 749.628906 258.394531 C 749.289063 258.394531 749.160156 258.113281 749.160156 257.648438 C 749.160156 257.253906 749.121094 256.285156 748.84375 255.613281 C 748.453125 254.738281 747.871094 254.046875 744.851563 253.730469 C 743.898438 253.617188 737.761719 253.5625 737.144531 253.5625 C 736.921875 253.5625 736.8125 253.730469 736.8125 254.121094 L 736.8125 269.605469 C 736.8125 270.015625 736.886719 270.183594 737.144531 270.183594 C 737.875 270.183594 744.773438 270.183594 746.082031 270.070313 C 747.441406 269.960938 748.226563 269.847656 748.714844 269.289063 C 749.121094 268.859375 749.328125 268.5625 749.570313 268.5625 C 749.738281 268.5625 749.851563 268.691406 749.851563 269.007813 C 749.851563 269.324219 749.570313 270.292969 749.402344 272.160156 C 749.289063 273.300781 749.160156 275.351563 749.160156 275.742188 C 749.160156 276.210938 749.160156 276.824219 748.769531 276.824219 C 748.507813 276.824219 748.394531 276.601563 748.394531 276.304688 C 748.394531 275.742188 748.394531 275.183594 748.171875 274.457031 C 747.929688 273.691406 747.441406 272.71875 745.242188 272.496094 C 743.730469 272.328125 738.152344 272.21875 737.203125 272.21875 C 736.921875 272.21875 736.8125 272.386719 736.8125 272.609375 L 736.8125 277.554688 C 736.8125 279.453125 736.753906 285.984375 736.8125 287.175781 C 736.980469 291.039063 737.835938 291.785156 743.320313 291.785156 C 744.773438 291.785156 747.273438 291.785156 748.714844 291.171875 C 750.203125 290.554688 750.878906 289.414063 751.25 287.121094 C 751.382813 286.488281 751.492188 286.265625 751.753906 286.265625 C 752.109375 286.265625 752.109375 286.710938 752.109375 287.121094 C 752.109375 287.570313 751.660156 291.394531 751.382813 292.550781 C 750.988281 294.023438 750.523438 294.023438 748.320313 294.023438 C 739.835938 294.023438 736.085938 293.667969 734.441406 293.667969 C 734.164063 293.667969 730.617188 293.835938 728.957031 293.835938 C 728.34375 293.835938 728.042969 293.746094 728.042969 293.410156 C 728.042969 293.222656 728.175781 293.054688 728.511719 293.054688 C 728.996094 293.054688 729.664063 292.941406 730.167969 292.832031 C 731.308594 292.605469 731.570313 291.394531 731.8125 289.753906 C 732.09375 287.402344 732.09375 282.941406 732.09375 277.554688 L 732.09375 267.664063 "/>
</g>
<path style=" stroke:none;fill-rule:nonzero;fill:rgb(13.699341%,12.199402%,12.5%);fill-opacity:1;" d="M 10.578125 335.101563 C 10.578125 326.355469 10.578125 324.785156 10.464844 322.976563 C 10.351563 321.054688 9.90625 320.160156 8.039063 319.789063 C 7.59375 319.65625 6.640625 319.621094 6.136719 319.621094 C 5.914063 319.621094 5.6875 319.488281 5.6875 319.265625 C 5.6875 318.929688 5.96875 318.816406 6.585938 318.816406 C 9.121094 318.816406 12.648438 319.003906 12.945313 319.003906 C 14.066406 319.003906 25.464844 319.003906 26.769531 318.929688 C 27.832031 318.871094 28.726563 318.871094 29.230469 318.703125 C 29.585938 318.59375 29.808594 318.371094 30.015625 318.371094 C 30.257813 318.371094 30.371094 318.59375 30.371094 318.871094 C 30.371094 319.265625 30.089844 319.9375 29.921875 321.503906 C 29.867188 322.082031 29.753906 324.5625 29.625 325.214844 C 29.585938 325.476563 29.472656 325.832031 29.175781 325.832031 C 28.898438 325.832031 28.785156 325.550781 28.785156 325.160156 C 28.785156 324.710938 28.617188 323.761719 28.28125 323.03125 C 27.945313 322.285156 26.65625 321.277344 24.457031 321.222656 L 15.800781 321.054688 C 15.464844 321.054688 15.296875 321.222656 15.296875 321.671875 L 15.296875 337.191406 C 15.296875 337.546875 15.351563 337.710938 15.6875 337.710938 L 22.890625 337.640625 C 23.839844 337.640625 24.625 337.640625 25.425781 337.601563 C 26.769531 337.472656 27.496094 337.320313 28 336.578125 C 28.222656 336.277344 28.394531 335.996094 28.617188 335.996094 C 28.839844 335.996094 28.898438 336.183594 28.898438 336.460938 C 28.898438 336.800781 28.617188 337.769531 28.449219 339.597656 C 28.335938 340.734375 28.222656 342.992188 28.222656 343.382813 C 28.222656 343.871094 28.222656 344.429688 27.832031 344.429688 C 27.554688 344.429688 27.441406 344.207031 27.441406 343.945313 C 27.386719 343.382813 27.328125 342.601563 27.105469 341.929688 C 26.824219 341.128906 25.929688 340.121094 24.175781 339.898438 C 22.777344 339.726563 16.640625 339.726563 15.6875 339.726563 C 15.410156 339.726563 15.296875 339.820313 15.296875 340.210938 L 15.296875 345.007813 C 15.296875 350.398438 15.296875 354.839844 15.578125 357.207031 C 15.746094 358.832031 16.082031 360.082031 17.777344 360.285156 C 18.5625 360.417969 19.792969 360.527344 20.296875 360.527344 C 20.632813 360.527344 20.742188 360.695313 20.742188 360.867188 C 20.742188 361.144531 20.464844 361.3125 19.847656 361.3125 C 16.769531 361.3125 13.226563 361.144531 12.945313 361.144531 C 12.648438 361.144531 9.121094 361.3125 7.425781 361.3125 C 6.808594 361.3125 6.53125 361.21875 6.53125 360.867188 C 6.53125 360.695313 6.640625 360.527344 6.976563 360.527344 C 7.480469 360.527344 8.152344 360.417969 8.675781 360.285156 C 9.792969 360.082031 10.074219 358.832031 10.296875 357.207031 C 10.578125 354.839844 10.578125 350.398438 10.578125 345.007813 L 10.578125 335.101563 "/>
<path style=" stroke:none;fill-rule:nonzero;fill:rgb(13.699341%,12.199402%,12.5%);fill-opacity:1;" d="M 43.859375 335.101563 C 43.859375 326.355469 43.859375 324.785156 43.746094 322.976563 C 43.632813 321.054688 43.1875 320.160156 41.320313 319.789063 C 40.871094 319.65625 39.921875 319.621094 39.417969 319.621094 C 39.195313 319.621094 38.96875 319.488281 38.96875 319.265625 C 38.96875 318.929688 39.25 318.816406 39.863281 318.816406 C 42.402344 318.816406 45.929688 319.003906 46.226563 319.003906 C 46.601563 319.003906 57.792969 319.003906 59.097656 318.929688 C 60.160156 318.871094 61.058594 318.761719 61.503906 318.648438 C 61.785156 318.59375 62.007813 318.371094 62.289063 318.371094 C 62.457031 318.371094 62.511719 318.59375 62.511719 318.871094 C 62.511719 319.265625 62.230469 319.9375 62.066406 321.503906 C 62.007813 322.082031 61.898438 324.5625 61.785156 325.214844 C 61.730469 325.476563 61.617188 325.832031 61.394531 325.832031 C 61.058594 325.832031 60.945313 325.550781 60.945313 325.101563 C 60.945313 324.710938 60.890625 323.761719 60.609375 323.089844 C 60.21875 322.175781 59.640625 321.503906 56.617188 321.167969 C 55.664063 321.054688 49.527344 321 48.914063 321 C 48.691406 321 48.578125 321.167969 48.578125 321.558594 L 48.578125 337.078125 C 48.578125 337.472656 48.632813 337.640625 48.914063 337.640625 C 49.640625 337.640625 56.5625 337.640625 57.847656 337.546875 C 59.210938 337.414063 59.992188 337.320313 60.496094 336.761719 C 60.890625 336.277344 61.113281 335.996094 61.335938 335.996094 C 61.503906 335.996094 61.617188 336.128906 61.617188 336.460938 C 61.617188 336.800781 61.335938 337.769531 61.167969 339.597656 C 61.058594 340.734375 60.945313 342.824219 60.945313 343.199219 C 60.945313 343.664063 60.945313 344.261719 60.554688 344.261719 C 60.273438 344.261719 60.160156 344.039063 60.160156 343.757813 C 60.160156 343.199219 60.160156 342.65625 59.9375 341.929688 C 59.714844 341.128906 59.210938 340.160156 57.007813 339.953125 C 55.480469 339.785156 49.917969 339.652344 48.96875 339.652344 C 48.691406 339.652344 48.578125 339.820313 48.578125 340.046875 L 48.578125 345.007813 C 48.578125 346.929688 48.523438 353.4375 48.578125 354.617188 C 48.746094 358.496094 49.585938 359.222656 55.089844 359.222656 C 56.5625 359.222656 59.023438 359.222656 60.496094 358.605469 C 61.953125 357.992188 62.625 356.871094 63.015625 354.558594 C 63.148438 353.925781 63.238281 353.71875 63.539063 353.71875 C 63.855469 353.71875 63.855469 354.167969 63.855469 354.558594 C 63.855469 355.023438 63.40625 358.832031 63.148438 360.023438 C 62.734375 361.480469 62.289063 361.480469 60.105469 361.480469 C 51.617188 361.480469 47.851563 361.144531 46.226563 361.144531 C 45.929688 361.144531 42.402344 361.3125 40.703125 361.3125 C 40.089844 361.3125 39.808594 361.21875 39.808594 360.867188 C 39.808594 360.695313 39.921875 360.527344 40.257813 360.527344 C 40.761719 360.527344 41.433594 360.417969 41.9375 360.285156 C 43.074219 360.082031 43.355469 358.832031 43.578125 357.207031 C 43.859375 354.839844 43.859375 350.398438 43.859375 345.007813 L 43.859375 335.101563 M 60.160156 311.148438 C 60.421875 311.671875 60.160156 311.839844 59.9375 311.839844 C 59.769531 311.839844 59.210938 311.726563 58.238281 311.839844 C 55.480469 312.121094 51.5625 313.425781 49.695313 314.207031 C 49.304688 314.378906 48.96875 314.488281 48.855469 314.488281 C 48.746094 314.488281 48.578125 314.378906 48.578125 314.152344 C 48.578125 313.984375 48.691406 313.871094 48.96875 313.6875 C 51.003906 312.289063 56.226563 309.136719 56.617188 308.910156 C 57.570313 308.351563 57.90625 308.183594 58.183594 308.183594 C 58.351563 308.183594 58.464844 308.296875 58.746094 308.707031 C 59.136719 309.265625 59.546875 310.046875 60.160156 311.148438 "/>
<path style=" stroke:none;fill-rule:nonzero;fill:rgb(13.699341%,12.199402%,12.5%);fill-opacity:1;" d="M 78.144531 345.007813 C 78.144531 350.398438 78.144531 354.839844 77.867188 357.207031 C 77.640625 358.832031 77.363281 360.082031 76.222656 360.285156 C 75.71875 360.417969 75.046875 360.527344 74.542969 360.527344 C 74.210938 360.527344 74.097656 360.695313 74.097656 360.867188 C 74.097656 361.21875 74.378906 361.3125 74.992188 361.3125 C 76.691406 361.3125 80.234375 361.144531 80.496094 361.144531 C 81.074219 361.144531 88.144531 361.816406 92.992188 361.816406 C 102.546875 361.816406 107.601563 357.878906 110.027344 355.34375 C 113.160156 352.039063 116.089844 346.574219 116.089844 339.503906 C 116.089844 332.828125 113.441406 328.164063 110.640625 325.214844 C 103.945313 318.292969 93.664063 318.816406 88.089844 318.816406 C 84.710938 318.816406 81.1875 319.003906 80.496094 319.003906 C 80.214844 319.003906 76.691406 318.816406 74.152344 318.816406 C 73.539063 318.816406 73.257813 318.929688 73.257813 319.265625 C 73.257813 319.488281 73.480469 319.621094 73.707031 319.621094 C 74.210938 319.621094 75.160156 319.65625 75.609375 319.789063 C 77.472656 320.160156 77.921875 321.054688 78.035156 322.976563 C 78.144531 324.785156 78.144531 326.355469 78.144531 335.101563 L 78.144531 345.007813 M 82.863281 334.207031 C 82.863281 329.859375 82.863281 324.171875 82.921875 322.25 C 82.921875 321.613281 83.089844 321.335938 83.59375 321.113281 C 84.058594 320.886719 86.128906 320.699219 87.25 320.699219 C 93.945313 320.699219 100.363281 321.503906 105.625 327.082031 C 107.9375 329.488281 111.035156 334.113281 111.035156 341.238281 C 111.035156 346.40625 109.46875 351.816406 106.539063 354.671875 C 103.21875 357.992188 98.386719 359.894531 93.164063 359.894531 C 86.523438 359.894531 84.320313 358.71875 83.59375 357.65625 C 83.144531 357.042969 83.03125 354.78125 82.976563 353.363281 C 82.921875 352.320313 82.863281 347.152344 82.863281 341.183594 L 82.863281 334.207031 "/>
<path style=" stroke:none;fill-rule:nonzero;fill:rgb(13.699341%,12.199402%,12.5%);fill-opacity:1;" d="M 127.449219 335.101563 C 127.449219 326.355469 127.449219 324.785156 127.320313 322.976563 C 127.226563 321.054688 126.761719 320.160156 124.914063 319.789063 C 124.464844 319.65625 123.515625 319.621094 123.011719 319.621094 C 122.785156 319.621094 122.542969 319.488281 122.542969 319.265625 C 122.542969 318.929688 122.84375 318.816406 123.457031 318.816406 C 125.976563 318.816406 129.519531 319.003906 129.800781 319.003906 C 130.191406 319.003906 141.382813 319.003906 142.671875 318.929688 C 143.753906 318.871094 144.632813 318.761719 145.097656 318.648438 C 145.378906 318.59375 145.601563 318.371094 145.882813 318.371094 C 146.050781 318.371094 146.105469 318.59375 146.105469 318.871094 C 146.105469 319.265625 145.824219 319.9375 145.65625 321.503906 C 145.601563 322.082031 145.488281 324.5625 145.378906 325.214844 C 145.320313 325.476563 145.207031 325.832031 144.984375 325.832031 C 144.632813 325.832031 144.539063 325.550781 144.539063 325.101563 C 144.539063 324.710938 144.480469 323.761719 144.183594 323.089844 C 143.789063 322.175781 143.230469 321.503906 140.191406 321.167969 C 139.238281 321.054688 133.121094 321 132.503906 321 C 132.28125 321 132.171875 321.167969 132.171875 321.558594 L 132.171875 337.078125 C 132.171875 337.472656 132.226563 337.640625 132.503906 337.640625 C 133.234375 337.640625 140.152344 337.640625 141.441406 337.546875 C 142.785156 337.414063 143.566406 337.320313 144.089844 336.761719 C 144.480469 336.277344 144.707031 335.996094 144.929688 335.996094 C 145.097656 335.996094 145.207031 336.128906 145.207031 336.460938 C 145.207031 336.800781 144.929688 337.769531 144.761719 339.597656 C 144.632813 340.734375 144.539063 342.824219 144.539063 343.199219 C 144.539063 343.664063 144.539063 344.261719 144.144531 344.261719 C 143.847656 344.261719 143.753906 344.039063 143.753906 343.757813 C 143.753906 343.199219 143.753906 342.65625 143.53125 341.929688 C 143.289063 341.128906 142.785156 340.160156 140.601563 339.953125 C 139.070313 339.785156 133.511719 339.652344 132.5625 339.652344 C 132.28125 339.652344 132.171875 339.820313 132.171875 340.046875 L 132.171875 345.007813 C 132.171875 346.929688 132.113281 353.4375 132.171875 354.617188 C 132.335938 358.496094 133.175781 359.222656 138.679688 359.222656 C 140.152344 359.222656 142.617188 359.222656 144.089844 358.605469 C 145.546875 357.992188 146.21875 356.871094 146.609375 354.558594 C 146.71875 353.925781 146.832031 353.71875 147.113281 353.71875 C 147.445313 353.71875 147.445313 354.167969 147.445313 354.558594 C 147.445313 355.023438 147 358.832031 146.71875 360.023438 C 146.328125 361.480469 145.882813 361.480469 143.699219 361.480469 C 135.191406 361.480469 131.441406 361.144531 129.800781 361.144531 C 129.519531 361.144531 125.976563 361.3125 124.296875 361.3125 C 123.664063 361.3125 123.402344 361.21875 123.402344 360.867188 C 123.402344 360.695313 123.515625 360.527344 123.851563 360.527344 C 124.355469 360.527344 125.023438 360.417969 125.527344 360.285156 C 126.648438 360.082031 126.929688 358.832031 127.171875 357.207031 C 127.449219 354.839844 127.449219 350.398438 127.449219 345.007813 L 127.449219 335.101563 M 143.753906 311.148438 C 144.035156 311.671875 143.753906 311.839844 143.53125 311.839844 C 143.34375 311.839844 142.785156 311.726563 141.832031 311.839844 C 139.070313 312.121094 135.136719 313.425781 133.289063 314.207031 C 132.898438 314.378906 132.5625 314.488281 132.449219 314.488281 C 132.335938 314.488281 132.171875 314.378906 132.171875 314.152344 C 132.171875 313.984375 132.28125 313.871094 132.5625 313.6875 C 134.574219 312.289063 139.800781 309.136719 140.191406 308.910156 C 141.160156 308.351563 141.496094 308.183594 141.777344 308.183594 C 141.945313 308.183594 142.058594 308.296875 142.335938 308.707031 C 142.726563 309.265625 143.121094 310.046875 143.753906 311.148438 "/>
<path style=" stroke:none;fill-rule:nonzero;fill:rgb(13.699341%,12.199402%,12.5%);fill-opacity:1;" d="M 161.738281 345.007813 C 161.738281 350.398438 161.738281 354.839844 161.457031 357.207031 C 161.234375 358.832031 160.933594 360.082031 159.816406 360.285156 C 159.3125 360.417969 158.640625 360.527344 158.136719 360.527344 C 157.800781 360.527344 157.6875 360.695313 157.6875 360.867188 C 157.6875 361.21875 157.96875 361.3125 158.585938 361.3125 C 160.265625 361.3125 163.808594 361.144531 163.863281 361.144531 C 164.144531 361.144531 167.6875 361.3125 170.785156 361.3125 C 171.402344 361.3125 171.679688 361.144531 171.679688 360.867188 C 171.679688 360.695313 171.570313 360.527344 171.234375 360.527344 C 170.730469 360.527344 169.496094 360.417969 168.695313 360.285156 C 167.015625 360.082031 166.683594 358.832031 166.515625 357.207031 C 166.234375 354.839844 166.234375 350.398438 166.234375 345.007813 L 166.234375 343.664063 C 166.234375 343.382813 166.347656 343.199219 166.625 343.199219 L 173.527344 343.328125 C 173.863281 343.328125 174.050781 343.441406 174.273438 343.664063 C 175.394531 345.121094 178.042969 348.886719 180.394531 351.984375 C 183.601563 356.199219 185.558594 358.941406 187.984375 360.25 C 189.441406 361.050781 190.859375 361.3125 193.992188 361.3125 L 197.984375 361.3125 C 199.007813 361.3125 199.328125 361.21875 199.328125 360.867188 C 199.328125 360.695313 199.121094 360.527344 198.824219 360.527344 C 198.488281 360.527344 197.703125 360.527344 196.640625 360.34375 C 195.242188 360.117188 192.816406 359.503906 189.773438 356.3125 C 186.53125 352.824219 182.707031 347.824219 178.078125 341.929688 C 183.152344 337.246094 184.886719 333.105469 184.886719 328.945313 C 184.886719 325.046875 182.425781 322.285156 181.007813 321.277344 C 178.042969 319.152344 174.273438 318.816406 170.730469 318.816406 C 168.976563 318.816406 164.703125 319.003906 164.089844 319.003906 C 163.808594 319.003906 160.265625 318.816406 157.746094 318.816406 C 157.128906 318.816406 156.851563 318.929688 156.851563 319.265625 C 156.851563 319.488281 157.054688 319.621094 157.296875 319.621094 C 157.800781 319.621094 158.753906 319.65625 159.199219 319.789063 C 161.066406 320.160156 161.515625 321.054688 161.625 322.976563 C 161.738281 324.785156 161.738281 326.355469 161.738281 335.101563 L 161.738281 345.007813 M 166.234375 321.613281 C 166.234375 321.277344 166.402344 321.054688 166.683594 320.945313 C 167.242188 320.757813 168.753906 320.605469 170.449219 320.605469 C 176.457031 320.605469 180.167969 324.84375 180.167969 331.835938 C 180.167969 336.128906 178.714844 339.152344 176.738281 340.511719 C 175.449219 341.40625 173.863281 341.574219 172.519531 341.574219 C 170.058594 341.574219 167.464844 341.183594 166.625 340.679688 C 166.347656 340.511719 166.234375 340.289063 166.234375 339.988281 L 166.234375 321.613281 "/>
<path style=" stroke:none;fill-rule:nonzero;fill:rgb(13.699341%,12.199402%,12.5%);fill-opacity:1;" d="M 199.457031 355.117188 C 198.433594 357.917969 197.3125 360.082031 194.71875 360.417969 C 194.273438 360.472656 193.488281 360.527344 193.097656 360.527344 C 192.816406 360.527344 192.59375 360.640625 192.59375 360.867188 C 192.59375 361.21875 192.929688 361.3125 193.65625 361.3125 C 196.304688 361.3125 199.402344 361.144531 200.019531 361.144531 C 200.632813 361.144531 203.039063 361.3125 204.402344 361.3125 C 204.90625 361.3125 205.238281 361.21875 205.238281 360.867188 C 205.238281 360.640625 205.070313 360.527344 204.679688 360.527344 L 204.121094 360.527344 C 203.152344 360.527344 201.976563 360.023438 201.976563 358.886719 C 201.976563 357.878906 202.257813 356.535156 202.761719 355.117188 L 206.136719 345.15625 C 206.25 344.894531 206.414063 344.726563 206.695313 344.726563 L 218.785156 344.726563 C 219.0625 344.726563 219.175781 344.820313 219.285156 345.0625 L 224.527344 358.886719 C 224.867188 359.800781 224.527344 360.285156 224.175781 360.417969 C 223.953125 360.472656 223.785156 360.585938 223.785156 360.808594 C 223.785156 361.144531 224.398438 361.144531 225.480469 361.21875 C 229.359375 361.3125 233.464844 361.3125 234.304688 361.3125 C 234.921875 361.3125 235.425781 361.21875 235.425781 360.867188 C 235.425781 360.585938 235.199219 360.527344 234.863281 360.527344 C 234.304688 360.527344 233.464844 360.472656 232.605469 360.191406 C 231.433594 359.855469 229.808594 358.941406 227.777344 353.925781 C 224.359375 345.402344 215.519531 322.175781 214.679688 320.046875 C 214.007813 318.292969 213.785156 318.03125 213.449219 318.03125 C 213.113281 318.03125 212.890625 318.371094 212.21875 320.214844 L 199.457031 355.117188 M 207.3125 342.710938 C 207.164063 342.710938 207.03125 342.601563 207.164063 342.320313 L 212.105469 327.117188 C 212.386719 326.277344 212.648438 326.277344 212.945313 327.117188 L 218.28125 342.320313 C 218.335938 342.546875 218.335938 342.710938 218.058594 342.710938 L 207.3125 342.710938 "/>
<path style=" stroke:none;fill-rule:nonzero;fill:rgb(13.699341%,12.199402%,12.5%);fill-opacity:1;" d="M 248.183594 345.121094 C 248.183594 353.363281 248.410156 357.003906 249.414063 357.992188 C 250.328125 358.886719 251.785156 359.277344 256.167969 359.277344 C 259.152344 359.277344 261.613281 359.222656 262.976563 357.601563 C 263.707031 356.703125 264.265625 355.304688 264.433594 354.222656 C 264.488281 353.757813 264.601563 353.496094 264.9375 353.496094 C 265.21875 353.496094 265.273438 353.71875 265.273438 354.335938 C 265.273438 354.949219 264.878906 358.308594 264.433594 359.949219 C 264.039063 361.273438 263.875 361.480469 260.886719 361.480469 C 252.792969 361.480469 249.078125 361.144531 245.835938 361.144531 C 245.3125 361.144531 242.011719 361.3125 240.3125 361.3125 C 239.695313 361.3125 239.417969 361.21875 239.417969 360.867188 C 239.417969 360.695313 239.527344 360.527344 239.863281 360.527344 C 240.367188 360.527344 241.058594 360.417969 241.542969 360.285156 C 242.679688 360.082031 242.960938 358.832031 243.183594 357.207031 C 243.464844 354.839844 243.464844 350.398438 243.464844 345.007813 L 243.464844 335.101563 C 243.464844 326.355469 243.464844 324.785156 243.351563 322.976563 C 243.242188 321.054688 242.792969 320.160156 240.945313 319.789063 C 240.480469 319.65625 239.527344 319.621094 239.023438 319.621094 C 238.800781 319.621094 238.578125 319.488281 238.578125 319.265625 C 238.578125 318.929688 238.855469 318.816406 239.472656 318.816406 C 242.011719 318.816406 245.535156 319.003906 245.835938 319.003906 C 246.113281 319.003906 250.21875 318.816406 251.898438 318.816406 C 252.511719 318.816406 252.792969 318.929688 252.792969 319.265625 C 252.792969 319.488281 252.566406 319.621094 252.34375 319.621094 C 251.953125 319.621094 251.167969 319.65625 250.496094 319.789063 C 248.855469 320.046875 248.410156 321 248.296875 322.976563 C 248.183594 324.785156 248.183594 326.355469 248.183594 335.101563 L 248.183594 345.121094 "/>
<path style=" stroke:none;fill-rule:nonzero;fill:rgb(13.699341%,12.199402%,12.5%);fill-opacity:1;" d="M 276.746094 335.101563 C 276.746094 326.355469 276.746094 324.785156 276.632813 322.976563 C 276.519531 321.054688 276.074219 320.160156 274.207031 319.789063 C 273.761719 319.65625 272.808594 319.621094 272.304688 319.621094 C 272.082031 319.621094 271.855469 319.488281 271.855469 319.265625 C 271.855469 318.929688 272.136719 318.816406 272.753906 318.816406 C 275.289063 318.816406 278.835938 319.003906 279.09375 319.003906 C 279.484375 319.003906 290.679688 319.003906 291.984375 318.929688 C 293.050781 318.871094 293.945313 318.761719 294.390625 318.648438 C 294.671875 318.59375 294.894531 318.371094 295.175781 318.371094 C 295.363281 318.371094 295.398438 318.59375 295.398438 318.871094 C 295.398438 319.265625 295.121094 319.9375 294.949219 321.503906 C 294.894531 322.082031 294.785156 324.5625 294.671875 325.214844 C 294.617188 325.476563 294.503906 325.832031 294.28125 325.832031 C 293.945313 325.832031 293.832031 325.550781 293.832031 325.101563 C 293.832031 324.710938 293.777344 323.761719 293.496094 323.089844 C 293.105469 322.175781 292.546875 321.503906 289.503906 321.167969 C 288.554688 321.054688 282.414063 321 281.800781 321 C 281.578125 321 281.464844 321.167969 281.464844 321.558594 L 281.464844 337.078125 C 281.464844 337.472656 281.519531 337.640625 281.800781 337.640625 C 282.527344 337.640625 289.449219 337.640625 290.738281 337.546875 C 292.078125 337.414063 292.882813 337.320313 293.386719 336.761719 C 293.777344 336.277344 294 335.996094 294.222656 335.996094 C 294.390625 335.996094 294.503906 336.128906 294.503906 336.460938 C 294.503906 336.800781 294.222656 337.769531 294.054688 339.597656 C 293.945313 340.734375 293.832031 342.824219 293.832031 343.199219 C 293.832031 343.664063 293.832031 344.261719 293.441406 344.261719 C 293.160156 344.261719 293.050781 344.039063 293.050781 343.757813 C 293.050781 343.199219 293.050781 342.65625 292.824219 341.929688 C 292.601563 341.128906 292.078125 340.160156 289.894531 339.953125 C 288.386719 339.785156 282.808594 339.652344 281.855469 339.652344 C 281.578125 339.652344 281.464844 339.820313 281.464844 340.046875 L 281.464844 345.007813 C 281.464844 346.929688 281.410156 353.4375 281.464844 354.617188 C 281.632813 358.496094 282.472656 359.222656 287.992188 359.222656 C 289.449219 359.222656 291.910156 359.222656 293.386719 358.605469 C 294.839844 357.992188 295.53125 356.871094 295.921875 354.558594 C 296.015625 353.925781 296.144531 353.71875 296.425781 353.71875 C 296.761719 353.71875 296.761719 354.167969 296.761719 354.558594 C 296.761719 355.023438 296.3125 358.832031 296.015625 360.023438 C 295.625 361.480469 295.175781 361.480469 292.992188 361.480469 C 284.507813 361.480469 280.734375 361.144531 279.09375 361.144531 C 278.835938 361.144531 275.289063 361.3125 273.59375 361.3125 C 272.976563 361.3125 272.695313 361.21875 272.695313 360.867188 C 272.695313 360.695313 272.808594 360.527344 273.144531 360.527344 C 273.648438 360.527344 274.320313 360.417969 274.824219 360.285156 C 275.960938 360.082031 276.242188 358.832031 276.464844 357.207031 C 276.746094 354.839844 276.746094 350.398438 276.746094 345.007813 L 276.746094 335.101563 "/>
<path style=" stroke:none;fill-rule:nonzero;fill:rgb(13.699341%,12.199402%,12.5%);fill-opacity:1;" d="M 329.296875 345.007813 C 329.296875 350.398438 329.296875 354.839844 329.015625 357.207031 C 328.792969 358.832031 328.511719 360.082031 327.390625 360.285156 C 326.871094 360.417969 326.21875 360.527344 325.714844 360.527344 C 325.378906 360.527344 325.246094 360.695313 325.246094 360.867188 C 325.246094 361.21875 325.527344 361.3125 326.160156 361.3125 C 327.839844 361.3125 331.386719 361.144531 331.664063 361.144531 C 332.226563 361.144531 339.3125 361.816406 344.144531 361.816406 C 353.695313 361.816406 358.753906 357.878906 361.175781 355.34375 C 364.3125 352.039063 367.238281 346.574219 367.238281 339.503906 C 367.238281 332.828125 364.609375 328.164063 361.792969 325.214844 C 355.097656 318.292969 344.816406 318.816406 339.257813 318.816406 C 335.882813 318.816406 332.335938 319.003906 331.664063 319.003906 C 331.386719 319.003906 327.839844 318.816406 325.304688 318.816406 C 324.6875 318.816406 324.40625 318.929688 324.40625 319.265625 C 324.40625 319.488281 324.632813 319.621094 324.855469 319.621094 C 325.378906 319.621094 326.328125 319.65625 326.777344 319.789063 C 328.625 320.160156 329.070313 321.054688 329.183594 322.976563 C 329.296875 324.785156 329.296875 326.355469 329.296875 335.101563 L 329.296875 345.007813 M 334.015625 334.207031 C 334.015625 329.859375 334.015625 324.171875 334.070313 322.25 C 334.070313 321.613281 334.238281 321.335938 334.761719 321.113281 C 335.210938 320.886719 337.277344 320.699219 338.398438 320.699219 C 345.097656 320.699219 351.496094 321.503906 356.792969 327.082031 C 359.089844 329.488281 362.183594 334.113281 362.183594 341.238281 C 362.183594 346.40625 360.617188 351.816406 357.6875 354.671875 C 354.367188 357.992188 349.535156 359.894531 344.3125 359.894531 C 337.671875 359.894531 335.488281 358.71875 334.761719 357.65625 C 334.3125 357.042969 334.183594 354.78125 334.128906 353.363281 C 334.070313 352.320313 334.015625 347.152344 334.015625 341.183594 L 334.015625 334.207031 "/>
<path style=" stroke:none;fill-rule:nonzero;fill:rgb(13.699341%,12.199402%,12.5%);fill-opacity:1;" d="M 380.839844 335.101563 C 380.839844 326.355469 380.839844 324.785156 380.746094 322.976563 C 380.613281 321.054688 380.167969 320.160156 378.320313 319.789063 C 377.875 319.65625 376.902344 319.621094 376.398438 319.621094 C 376.175781 319.621094 375.949219 319.488281 375.949219 319.265625 C 375.949219 318.929688 376.230469 318.816406 376.847656 318.816406 C 379.382813 318.816406 382.929688 319.003906 383.207031 319.003906 C 383.601563 319.003906 394.792969 319.003906 396.0625 318.929688 C 397.144531 318.871094 398.058594 318.761719 398.503906 318.648438 C 398.785156 318.59375 399.011719 318.371094 399.289063 318.371094 C 399.457031 318.371094 399.511719 318.59375 399.511719 318.871094 C 399.511719 319.265625 399.230469 319.9375 399.0625 321.503906 C 399.011719 322.082031 398.878906 324.5625 398.785156 325.214844 C 398.730469 325.476563 398.617188 325.832031 398.410156 325.832031 C 398.058594 325.832031 397.925781 325.550781 397.925781 325.101563 C 397.925781 324.710938 397.890625 323.761719 397.609375 323.089844 C 397.199219 322.175781 396.640625 321.503906 393.617188 321.167969 C 392.664063 321.054688 386.511719 321 385.910156 321 C 385.6875 321 385.578125 321.167969 385.578125 321.558594 L 385.578125 337.078125 C 385.578125 337.472656 385.613281 337.640625 385.910156 337.640625 C 386.640625 337.640625 393.542969 337.640625 394.847656 337.546875 C 396.191406 337.414063 396.976563 337.320313 397.496094 336.761719 C 397.890625 336.277344 398.113281 335.996094 398.335938 335.996094 C 398.503906 335.996094 398.617188 336.128906 398.617188 336.460938 C 398.617188 336.800781 398.335938 337.769531 398.167969 339.597656 C 398.058594 340.734375 397.925781 342.824219 397.925781 343.199219 C 397.925781 343.664063 397.925781 344.261719 397.535156 344.261719 C 397.253906 344.261719 397.144531 344.039063 397.144531 343.757813 C 397.144531 343.199219 397.144531 342.65625 396.917969 341.929688 C 396.695313 341.128906 396.191406 340.160156 394.007813 339.953125 C 392.480469 339.785156 386.921875 339.652344 385.96875 339.652344 C 385.6875 339.652344 385.578125 339.820313 385.578125 340.046875 L 385.578125 345.007813 C 385.578125 346.929688 385.523438 353.4375 385.578125 354.617188 C 385.742188 358.496094 386.566406 359.222656 392.089844 359.222656 C 393.542969 359.222656 396.023438 359.222656 397.496094 358.605469 C 398.933594 357.992188 399.625 356.871094 400.015625 354.558594 C 400.109375 353.925781 400.238281 353.71875 400.5 353.71875 C 400.855469 353.71875 400.855469 354.167969 400.855469 354.558594 C 400.855469 355.023438 400.40625 358.832031 400.109375 360.023438 C 399.734375 361.480469 399.289063 361.480469 397.085938 361.480469 C 388.601563 361.480469 384.851563 361.144531 383.207031 361.144531 C 382.929688 361.144531 379.382813 361.3125 377.707031 361.3125 C 377.089844 361.3125 376.808594 361.21875 376.808594 360.867188 C 376.808594 360.695313 376.902344 360.527344 377.238281 360.527344 C 377.761719 360.527344 378.433594 360.417969 378.9375 360.285156 C 380.074219 360.082031 380.335938 358.832031 380.558594 357.207031 C 380.839844 354.839844 380.839844 350.398438 380.839844 345.007813 L 380.839844 335.101563 "/>
<path style=" stroke:none;fill-rule:nonzero;fill:rgb(13.699341%,12.199402%,12.5%);fill-opacity:1;" d="M 438.128906 345.121094 C 438.128906 353.363281 438.351563 357.003906 439.378906 357.992188 C 440.273438 358.886719 441.710938 359.277344 446.109375 359.277344 C 449.078125 359.277344 451.5625 359.222656 452.921875 357.601563 C 453.648438 356.703125 454.210938 355.304688 454.375 354.222656 C 454.433594 353.757813 454.542969 353.496094 454.878906 353.496094 C 455.160156 353.496094 455.21875 353.71875 455.21875 354.335938 C 455.21875 354.949219 454.824219 358.308594 454.375 359.949219 C 453.984375 361.273438 453.816406 361.480469 450.832031 361.480469 C 442.734375 361.480469 439.023438 361.144531 435.777344 361.144531 C 435.273438 361.144531 431.953125 361.3125 430.273438 361.3125 C 429.640625 361.3125 429.359375 361.21875 429.359375 360.867188 C 429.359375 360.695313 429.472656 360.527344 429.808594 360.527344 C 430.3125 360.527344 431.003906 360.417969 431.488281 360.285156 C 432.605469 360.082031 432.886719 358.832031 433.109375 357.207031 C 433.40625 354.839844 433.40625 350.398438 433.40625 345.007813 L 433.40625 335.101563 C 433.40625 326.355469 433.40625 324.785156 433.277344 322.976563 C 433.164063 321.054688 432.71875 320.160156 430.890625 319.789063 C 430.441406 319.65625 429.472656 319.621094 428.96875 319.621094 C 428.726563 319.621094 428.503906 319.488281 428.503906 319.265625 C 428.503906 318.929688 428.800781 318.816406 429.414063 318.816406 C 431.953125 318.816406 435.496094 319.003906 435.777344 319.003906 C 436.058594 319.003906 440.160156 318.816406 441.839844 318.816406 C 442.457031 318.816406 442.734375 318.929688 442.734375 319.265625 C 442.734375 319.488281 442.492188 319.621094 442.269531 319.621094 C 441.898438 319.621094 441.113281 319.65625 440.441406 319.789063 C 438.800781 320.046875 438.351563 321 438.238281 322.976563 C 438.128906 324.785156 438.128906 326.355469 438.128906 335.101563 L 438.128906 345.121094 "/>
<path style=" stroke:none;fill-rule:nonzero;fill:rgb(13.699341%,12.199402%,12.5%);fill-opacity:1;" d="M 463.144531 355.117188 C 462.136719 357.917969 461 360.082031 458.425781 360.417969 C 457.960938 360.472656 457.175781 360.527344 456.78125 360.527344 C 456.503906 360.527344 456.261719 360.640625 456.261719 360.867188 C 456.261719 361.21875 456.613281 361.3125 457.359375 361.3125 C 459.992188 361.3125 463.089844 361.144531 463.722656 361.144531 C 464.320313 361.144531 466.726563 361.3125 468.105469 361.3125 C 468.609375 361.3125 468.925781 361.21875 468.925781 360.867188 C 468.925781 360.640625 468.777344 360.527344 468.386719 360.527344 L 467.824219 360.527344 C 466.855469 360.527344 465.660156 360.023438 465.660156 358.886719 C 465.660156 357.878906 465.941406 356.535156 466.464844 355.117188 L 469.824219 345.15625 C 469.933594 344.894531 470.101563 344.726563 470.382813 344.726563 L 482.488281 344.726563 C 482.769531 344.726563 482.863281 344.820313 482.992188 345.0625 L 488.195313 358.886719 C 488.554688 359.800781 488.195313 360.285156 487.863281 360.417969 C 487.636719 360.472656 487.488281 360.585938 487.488281 360.808594 C 487.488281 361.144531 488.085938 361.144531 489.167969 361.21875 C 493.03125 361.3125 497.152344 361.3125 497.992188 361.3125 C 498.605469 361.3125 499.128906 361.21875 499.128906 360.867188 C 499.128906 360.585938 498.886719 360.527344 498.550781 360.527344 C 497.992188 360.527344 497.152344 360.472656 496.332031 360.191406 C 495.136719 359.855469 493.496094 358.941406 491.480469 353.925781 C 488.03125 345.402344 479.226563 322.175781 478.386719 320.046875 C 477.714844 318.292969 477.488281 318.03125 477.136719 318.03125 C 476.816406 318.03125 476.574219 318.371094 475.902344 320.214844 L 463.144531 355.117188 M 471.015625 342.710938 C 470.851563 342.710938 470.71875 342.601563 470.851563 342.320313 L 475.792969 327.117188 C 476.054688 326.277344 476.351563 326.277344 476.648438 327.117188 L 481.984375 342.320313 C 482.039063 342.546875 482.039063 342.710938 481.761719 342.710938 L 471.015625 342.710938 "/>
<g clip-path="url(#clip2)" clip-rule="nonzero">
<path style=" stroke:none;fill-rule:nonzero;fill:rgb(13.699341%,12.199402%,12.5%);fill-opacity:1;" d="M 503.902344 335.101563 C 503.902344 326.355469 503.902344 324.785156 503.773438 322.976563 C 503.660156 321.054688 503.214844 320.160156 501.367188 319.789063 C 500.9375 319.65625 499.96875 319.621094 499.464844 319.621094 C 499.222656 319.621094 499 319.488281 499 319.265625 C 499 318.929688 499.296875 318.816406 499.910156 318.816406 C 502.433594 318.816406 505.882813 319.003906 506.367188 319.003906 C 506.871094 319.003906 510.265625 318.816406 511.925781 318.816406 C 512.542969 318.816406 512.820313 318.929688 512.820313 319.265625 C 512.820313 319.488281 512.617188 319.621094 512.375 319.621094 C 511.980469 319.621094 511.644531 319.65625 510.976563 319.789063 C 509.464844 319.992188 509.015625 321 508.886719 322.976563 C 508.792969 324.785156 508.792969 326.355469 508.792969 335.101563 L 508.792969 342.992188 C 508.792969 351.089844 510.585938 354.558594 513.011719 356.871094 C 515.75 359.464844 518.289063 359.949219 521.476563 359.949219 C 524.910156 359.949219 528.304688 358.308594 530.320313 355.921875 C 532.914063 352.710938 533.566406 347.917969 533.566406 342.152344 L 533.566406 335.101563 C 533.566406 326.355469 533.566406 324.785156 533.472656 322.976563 C 533.359375 321.054688 532.914063 320.160156 531.027344 319.789063 C 530.582031 319.65625 529.632813 319.621094 529.144531 319.621094 C 528.941406 319.621094 528.695313 319.488281 528.695313 319.265625 C 528.695313 318.929688 528.976563 318.816406 529.59375 318.816406 C 532.109375 318.816406 535.1875 319.003906 535.542969 319.003906 C 535.9375 319.003906 538.585938 318.816406 540.261719 318.816406 C 540.878906 318.816406 541.15625 318.929688 541.15625 319.265625 C 541.15625 319.488281 540.953125 319.621094 540.710938 319.621094 C 540.320313 319.621094 539.984375 319.621094 539.292969 319.789063 C 537.800781 320.046875 537.355469 321 537.222656 322.976563 C 537.128906 324.785156 537.128906 326.355469 537.128906 335.101563 L 537.128906 341.128906 C 537.128906 347.207031 536.4375 353.925781 531.960938 357.917969 C 527.894531 361.535156 523.699219 362.097656 520.378906 362.097656 C 518.457031 362.097656 512.765625 361.871094 508.792969 358.085938 C 506.050781 355.472656 503.902344 351.539063 503.902344 343.328125 L 503.902344 335.101563 "/>
</g>
<g clip-path="url(#clip3)" clip-rule="nonzero">
<path style=" stroke:none;fill-rule:nonzero;fill:rgb(13.699341%,12.199402%,12.5%);fill-opacity:1;" d="M 550.207031 360.585938 C 549.421875 360.191406 549.367188 359.949219 549.367188 358.441406 C 549.367188 355.640625 549.589844 353.363281 549.664063 352.488281 C 549.703125 351.890625 549.835938 351.59375 550.113281 351.59375 C 550.449219 351.59375 550.503906 351.761719 550.503906 352.207031 C 550.503906 352.710938 550.503906 353.496094 550.671875 354.28125 C 551.511719 358.441406 555.226563 360.023438 558.992188 360.023438 C 564.386719 360.023438 567.015625 356.144531 567.015625 352.542969 C 567.015625 348.664063 565.410156 346.40625 560.5625 342.433594 L 558.023438 340.34375 C 552.070313 335.4375 550.710938 331.96875 550.710938 328.164063 C 550.710938 322.117188 555.226563 318.03125 562.351563 318.03125 C 564.550781 318.03125 566.195313 318.257813 567.59375 318.59375 C 568.636719 318.816406 569.105469 318.871094 569.554688 318.871094 C 570 318.871094 570.128906 319.003906 570.128906 319.265625 C 570.128906 319.542969 569.90625 321.390625 569.90625 325.214844 C 569.90625 326.109375 569.773438 326.5 569.496094 326.5 C 569.160156 326.5 569.105469 326.222656 569.046875 325.773438 C 568.992188 325.101563 568.636719 323.59375 568.320313 322.976563 C 567.984375 322.34375 566.453125 319.992188 561.304688 319.992188 C 557.40625 319.992188 554.367188 322.417969 554.367188 326.5 C 554.367188 329.710938 555.953125 331.632813 561.25 335.960938 L 562.800781 337.191406 C 569.4375 342.433594 571.007813 345.921875 571.007813 350.398438 C 571.007813 352.710938 570.128906 357.003906 566.230469 359.726563 C 563.804688 361.441406 560.800781 362.097656 557.742188 362.097656 C 555.09375 362.097656 552.519531 361.703125 550.207031 360.585938 "/>
</g>
<path style=" stroke:none;fill-rule:nonzero;fill:rgb(13.699341%,12.199402%,12.5%);fill-opacity:1;" d="M 581.175781 355.117188 C 580.183594 357.917969 579.066406 360.082031 576.453125 360.417969 C 576.007813 360.472656 575.222656 360.527344 574.847656 360.527344 C 574.550781 360.527344 574.347656 360.640625 574.347656 360.867188 C 574.347656 361.21875 574.683594 361.3125 575.390625 361.3125 C 578.039063 361.3125 581.117188 361.144531 581.753906 361.144531 C 582.351563 361.144531 584.792969 361.3125 586.117188 361.3125 C 586.640625 361.3125 586.957031 361.21875 586.957031 360.867188 C 586.957031 360.640625 586.789063 360.527344 586.414063 360.527344 L 585.839844 360.527344 C 584.902344 360.527344 583.730469 360.023438 583.730469 358.886719 C 583.730469 357.878906 584.007813 356.535156 584.511719 355.117188 L 587.890625 345.15625 C 587.984375 344.894531 588.167969 344.726563 588.449219 344.726563 L 600.519531 344.726563 C 600.796875 344.726563 600.910156 344.820313 601.023438 345.0625 L 606.246094 358.886719 C 606.601563 359.800781 606.246094 360.285156 605.929688 360.417969 C 605.6875 360.472656 605.519531 360.585938 605.519531 360.808594 C 605.519531 361.144531 606.152344 361.144531 607.214844 361.21875 C 611.097656 361.3125 615.183594 361.3125 616.039063 361.3125 C 616.675781 361.3125 617.175781 361.21875 617.175781 360.867188 C 617.175781 360.585938 616.9375 360.527344 616.601563 360.527344 C 616.039063 360.527344 615.183594 360.472656 614.359375 360.191406 C 613.167969 359.855469 611.542969 358.941406 609.511719 353.925781 C 606.078125 345.402344 597.253906 322.175781 596.414063 320.046875 C 595.742188 318.292969 595.5 318.03125 595.183594 318.03125 C 594.847656 318.03125 594.621094 318.371094 593.953125 320.214844 L 581.175781 355.117188 M 589.0625 342.710938 C 588.894531 342.710938 588.785156 342.601563 588.894531 342.320313 L 593.859375 327.117188 C 594.121094 326.277344 594.398438 326.277344 594.679688 327.117188 L 600.015625 342.320313 C 600.070313 342.546875 600.070313 342.710938 599.789063 342.710938 L 589.0625 342.710938 "/>
<path style=" stroke:none;fill-rule:nonzero;fill:rgb(13.699341%,12.199402%,12.5%);fill-opacity:1;" d="M 626.710938 353.664063 C 626.839844 358.273438 627.382813 359.726563 628.910156 360.191406 C 629.992188 360.472656 631.226563 360.527344 631.710938 360.527344 C 632.007813 360.527344 632.175781 360.640625 632.175781 360.867188 C 632.175781 361.21875 631.839844 361.3125 631.167969 361.3125 C 627.941406 361.3125 625.722656 361.144531 625.199219 361.144531 C 624.695313 361.144531 622.324219 361.3125 619.808594 361.3125 C 619.230469 361.3125 618.914063 361.273438 618.914063 360.867188 C 618.914063 360.640625 619.078125 360.527344 619.359375 360.527344 C 619.808594 360.527344 620.816406 360.472656 621.675781 360.191406 C 623.054688 359.800781 623.335938 358.140625 623.335938 353.046875 L 623.390625 320.832031 C 623.390625 318.648438 623.558594 318.03125 624.003906 318.03125 C 624.472656 318.03125 625.441406 319.265625 626.003906 319.84375 C 626.839844 320.757813 635.214844 329.824219 643.855469 339.113281 C 649.433594 345.0625 655.550781 351.929688 657.359375 353.757813 L 656.742188 325.214844 C 656.671875 321.558594 656.296875 320.328125 654.542969 319.878906 C 653.535156 319.65625 652.230469 319.621094 651.78125 319.621094 C 651.390625 319.621094 651.335938 319.449219 651.335938 319.226563 C 651.335938 318.871094 651.78125 318.816406 652.453125 318.816406 C 654.988281 318.816406 657.695313 319.003906 658.328125 319.003906 C 658.925781 319.003906 660.773438 318.816406 663.105469 318.816406 C 663.703125 318.816406 664.09375 318.871094 664.09375 319.226563 C 664.09375 319.449219 663.890625 319.621094 663.496094 319.621094 C 663.199219 319.621094 662.808594 319.621094 662.136719 319.789063 C 660.269531 320.160156 660.0625 321.390625 660.0625 324.785156 L 659.933594 357.710938 C 659.933594 361.441406 659.824219 361.703125 659.449219 361.703125 C 659.003906 361.703125 658.328125 361.085938 655.347656 358.085938 C 654.710938 357.523438 646.613281 349.28125 640.644531 342.882813 C 634.136719 335.847656 627.773438 328.777344 626.003906 326.726563 L 626.710938 353.664063 "/>
<path style=" stroke:none;fill-rule:nonzero;fill:rgb(13.699341%,12.199402%,12.5%);fill-opacity:1;" d="M 679.949219 353.664063 C 680.0625 358.273438 680.640625 359.726563 682.152344 360.191406 C 683.214844 360.472656 684.445313 360.527344 684.96875 360.527344 C 685.230469 360.527344 685.398438 360.640625 685.398438 360.867188 C 685.398438 361.21875 685.0625 361.3125 684.390625 361.3125 C 681.199219 361.3125 678.925781 361.144531 678.421875 361.144531 C 677.917969 361.144531 675.566406 361.3125 673.050781 361.3125 C 672.46875 361.3125 672.136719 361.273438 672.136719 360.867188 C 672.136719 360.640625 672.320313 360.527344 672.601563 360.527344 C 673.050781 360.527344 674.054688 360.472656 674.875 360.191406 C 676.292969 359.800781 676.59375 358.140625 676.59375 353.046875 L 676.628906 320.832031 C 676.628906 318.648438 676.816406 318.03125 677.265625 318.03125 C 677.695313 318.03125 678.664063 319.265625 679.222656 319.84375 C 680.0625 320.757813 688.4375 329.824219 697.09375 339.113281 C 702.652344 345.0625 708.789063 351.929688 710.601563 353.757813 L 709.984375 325.214844 C 709.910156 321.558594 709.519531 320.328125 707.78125 319.878906 C 706.757813 319.65625 705.472656 319.621094 705.039063 319.621094 C 704.648438 319.621094 704.574219 319.449219 704.574219 319.226563 C 704.574219 318.871094 705.039063 318.816406 705.714844 318.816406 C 708.230469 318.816406 710.917969 319.003906 711.53125 319.003906 C 712.148438 319.003906 714.015625 318.816406 716.308594 318.816406 C 716.925781 318.816406 717.316406 318.871094 717.316406 319.226563 C 717.316406 319.449219 717.109375 319.621094 716.699219 319.621094 C 716.421875 319.621094 716.03125 319.621094 715.378906 319.789063 C 713.511719 320.160156 713.285156 321.390625 713.285156 324.785156 L 713.175781 357.710938 C 713.175781 361.441406 713.046875 361.703125 712.671875 361.703125 C 712.222656 361.703125 711.53125 361.085938 708.566406 358.085938 C 707.933594 357.523438 699.875 349.28125 693.886719 342.882813 C 687.375 335.847656 681.015625 328.777344 679.222656 326.726563 L 679.949219 353.664063 "/>
<path style=" stroke:none;fill-rule:nonzero;fill:rgb(13.699341%,12.199402%,12.5%);fill-opacity:1;" d="M 731.679688 335.101563 C 731.679688 326.355469 731.679688 324.785156 731.550781 322.976563 C 731.4375 321.054688 730.988281 320.160156 729.144531 319.789063 C 728.695313 319.65625 727.746094 319.621094 727.222656 319.621094 C 726.996094 319.621094 726.773438 319.488281 726.773438 319.265625 C 726.773438 318.929688 727.054688 318.816406 727.671875 318.816406 C 730.1875 318.816406 733.753906 319.003906 734.03125 319.003906 C 734.421875 319.003906 745.617188 319.003906 746.902344 318.929688 C 747.964844 318.871094 748.859375 318.761719 749.308594 318.648438 C 749.609375 318.59375 749.832031 318.371094 750.109375 318.371094 C 750.277344 318.371094 750.335938 318.59375 750.335938 318.871094 C 750.335938 319.265625 750.058594 319.9375 749.867188 321.503906 C 749.832031 322.082031 749.703125 324.5625 749.609375 325.214844 C 749.535156 325.476563 749.441406 325.832031 749.199219 325.832031 C 748.859375 325.832031 748.75 325.550781 748.75 325.101563 C 748.75 324.710938 748.691406 323.761719 748.433594 323.089844 C 748.023438 322.175781 747.464844 321.503906 744.421875 321.167969 C 743.472656 321.054688 737.351563 321 736.738281 321 C 736.511719 321 736.382813 321.167969 736.382813 321.558594 L 736.382813 337.078125 C 736.382813 337.472656 736.457031 337.640625 736.738281 337.640625 C 737.464844 337.640625 744.367188 337.640625 745.671875 337.546875 C 747.035156 337.414063 747.816406 337.320313 748.300781 336.761719 C 748.691406 336.277344 748.917969 335.996094 749.140625 335.996094 C 749.308594 335.996094 749.441406 336.128906 749.441406 336.460938 C 749.441406 336.800781 749.140625 337.769531 748.976563 339.597656 C 748.859375 340.734375 748.75 342.824219 748.75 343.199219 C 748.75 343.664063 748.75 344.261719 748.359375 344.261719 C 748.078125 344.261719 747.964844 344.039063 747.964844 343.757813 C 747.964844 343.199219 747.964844 342.65625 747.742188 341.929688 C 747.519531 341.128906 747.035156 340.160156 744.832031 339.953125 C 743.304688 339.785156 737.742188 339.652344 736.792969 339.652344 C 736.511719 339.652344 736.382813 339.820313 736.382813 340.046875 L 736.382813 345.007813 C 736.382813 346.929688 736.324219 353.4375 736.382813 354.617188 C 736.550781 358.496094 737.40625 359.222656 742.929688 359.222656 C 744.367188 359.222656 746.867188 359.222656 748.300781 358.605469 C 749.757813 357.992188 750.445313 356.871094 750.859375 354.558594 C 750.953125 353.925781 751.0625 353.71875 751.34375 353.71875 C 751.679688 353.71875 751.679688 354.167969 751.679688 354.558594 C 751.679688 355.023438 751.230469 358.832031 750.953125 360.023438 C 750.558594 361.480469 750.109375 361.480469 747.910156 361.480469 C 739.402344 361.480469 735.652344 361.144531 734.03125 361.144531 C 733.753906 361.144531 730.1875 361.3125 728.546875 361.3125 C 727.914063 361.3125 727.632813 361.21875 727.632813 360.867188 C 727.632813 360.695313 727.746094 360.527344 728.0625 360.527344 C 728.566406 360.527344 729.257813 360.417969 729.761719 360.285156 C 730.878906 360.082031 731.15625 358.832031 731.382813 357.207031 C 731.679688 354.839844 731.679688 350.398438 731.679688 345.007813 L 731.679688 335.101563 "/>
</g>
</svg>
